<svg xmlns="http://www.w3.org/2000/svg" version="1.2" viewBox="0 0 2467 340"><defs><clipPath id="cp1" clipPathUnits="userSpaceOnUse"><path d="M0 0h2467v340H0z"/></clipPath></defs><style>.s0{fill:#000}.s1{fill:#fff}.s4{fill:#039}.s5{fill:#fc0}</style><g id="Page 1" clip-path="url(#cp1)"><path id="Path 2" fill-rule="evenodd" d="M1198.3 185.1q7.5 0 11.4 2.7 4 2.7 4 8.5 0 3-1.1 5.1-1 2.2-3 3.5-2.1 1.4-5 2-2.9.6-6.6.7h-3.1v12h-6.2v-33.7q2.2-.4 4.8-.6 2.6-.2 4.8-.2zm.5 5.4q-2.4 0-3.9.1v11.6h3q4.5 0 6.9-1.2 2.4-1.3 2.4-4.8 0-1.6-.6-2.8-.7-1.1-1.8-1.7-1.1-.7-2.7-1-1.6-.2-3.3-.2zm42.4 16.2q0 3-.9 5.5t-2.5 4.3q-1.7 1.8-3.9 2.8-2.3.9-5.1.9-2.7 0-5-.9-2.3-1-3.9-2.8-1.6-1.8-2.5-4.3-.9-2.5-.9-5.5 0-3.1.9-5.6.9-2.5 2.5-4.2 1.7-1.8 4-2.8 2.2-.9 4.9-.9t5 .9q2.3 1 3.9 2.8 1.6 1.7 2.6 4.2.9 2.5.9 5.6zm-6.1 0q0-3.9-1.7-6.1-1.6-2.3-4.6-2.3-2.9 0-4.6 2.3-1.6 2.2-1.6 6.1 0 3.8 1.6 6.1 1.7 2.3 4.6 2.3 3 0 4.6-2.3 1.7-2.3 1.7-6.1zm20.4 13.3q-2.7 0-4.4-.5-1.8-.6-2.8-1.6-1.1-1-1.5-2.5-.4-1.5-.4-3.4v-29.6l6-1v29.4q0 1.1.1 1.9.2.7.6 1.2.5.5 1.2.8.8.3 2 .4zm12.8-4.7q2.4 0 3.5-.6 1-.6 1-2 0-1.2-1.1-2.1-1.2-.8-3.8-1.8-1.7-.6-3-1.2-1.4-.7-2.3-1.6-1-.9-1.6-2.1-.6-1.3-.6-3.1 0-3.6 2.7-5.6 2.6-2 7-2 2.3 0 4.4.4 2 .4 3.1.8l-1.1 4.8q-1-.4-2.5-.8-1.6-.4-3.6-.4-1.8 0-2.9.6-1.2.7-1.2 1.9 0 .7.3 1.2.2.5.7.9.6.4 1.5.8.8.4 2.1.9 2.1.8 3.6 1.5 1.5.8 2.4 1.8 1 .9 1.5 2.1.4 1.3.4 3 0 3.7-2.7 5.6-2.8 1.9-7.8 1.9-3.4 0-5.5-.6t-2.9-.9l1-5q1.4.6 3.2 1.1 1.9.5 4.2.5zm21.4-11.5q1.1-1.1 2.4-2.5 1.3-1.4 2.5-2.7 1.3-1.4 2.4-2.6 1.1-1.3 1.9-2.2h7q-2.5 2.8-5.2 5.7-2.7 3-5.5 5.8 1.5 1.2 3.1 2.9 1.7 1.8 3.2 3.8 1.5 1.9 2.8 3.9 1.4 2 2.2 3.6h-6.9q-.8-1.5-2-3.2-1.2-1.6-2.5-3.2t-2.7-3q-1.4-1.4-2.7-2.4v11.8h-5.9v-37.2l5.9-.9zm29-10.7q3 0 5 .7 2 .8 3.2 2.1 1.2 1.3 1.8 3.2.5 1.9.5 4.2v15.6q-1.4.3-4.2.7-2.8.4-6.3.4-2.3 0-4.2-.5-1.9-.4-3.3-1.4-1.3-1-2.1-2.5-.7-1.6-.7-3.9 0-2.2.8-3.8.9-1.5 2.4-2.5 1.4-.9 3.4-1.3 1.9-.4 4-.4 1 0 2.1.1t2.3.4v-1q0-1-.2-2-.3-.9-.9-1.6-.6-.7-1.6-1.1-1-.4-2.5-.4-2.1 0-3.8.3-1.8.3-2.8.7l-.8-4.8q1.2-.4 3.3-.8 2.2-.4 4.6-.4zm.5 22.2q2.8 0 4.2-.3v-6.6q-.5-.2-1.4-.3-.9-.2-2.1-.2-1 0-2 .2-1 .1-1.8.5t-1.3 1.1q-.5.7-.5 1.8 0 2.1 1.3 3 1.4.8 3.6.8zm-121.1-87q7.4 0 11.3 2.7 3.9 2.7 3.9 8.3 0 6.9-6.8 9.4.9 1.1 2.1 2.7 1.2 1.7 2.4 3.6l2.4 3.8q1.1 2 2 4h-6.9q-1-1.8-2.1-3.6-1-1.8-2.1-3.5-1.2-1.7-2.2-3.2-1.1-1.5-2.1-2.7-.6.1-1.1.1h-4v12.9h-6.2v-33.6q2.3-.5 4.9-.7 2.5-.2 4.5-.2zm.5 5.4q-2 0-3.7.1v11.1h2.7q2.3 0 4-.3 1.7-.2 2.9-.9 1.2-.6 1.7-1.7.6-1.1.6-2.8 0-1.5-.6-2.6-.5-1.1-1.7-1.7-1.1-.7-2.6-.9-1.5-.3-3.3-.3zm41 7.5q-1 1-2.6 2.9t-3.4 4.2q-1.9 2.3-3.7 4.7-1.8 2.5-3.3 4.8h13.3v5h-20.5v-3.7q1.1-2 2.7-4.3t3.3-4.7q1.8-2.3 3.5-4.4 1.7-2.1 3-3.7H1220v-5h19.6zm3.4 8.8q0-3.4 1-5.9 1-2.6 2.7-4.3 1.7-1.7 3.8-2.5 2.2-.9 4.4-.9 5.4 0 8.3 3.3 3 3.3 3 9.8v1.2q0 .6-.1 1.1h-17q.3 3.1 2.2 4.8 2 1.7 5.7 1.7 2.1 0 3.9-.4 1.8-.4 2.9-.9l.7 4.9q-.4.2-1.3.5t-2 .5q-1.1.2-2.4.4-1.2.1-2.6.1-3.4 0-5.9-1-2.5-1-4.1-2.8-1.6-1.8-2.4-4.2-.8-2.5-.8-5.4zm17.3-2.6q0-1.3-.4-2.4-.3-1.1-1-1.9-.7-.8-1.6-1.3-1-.4-2.3-.4-1.4 0-2.4.5t-1.8 1.3q-.7.9-1.1 2-.4 1-.5 2.2zm10.2 2.5q0-2.8.9-5.3.8-2.5 2.5-4.3 1.6-1.8 4-2.9 2.4-1 5.3-1 3.6 0 6.9 1.3l-1.3 4.9q-1-.4-2.3-.7-1.3-.3-2.8-.3-3.5 0-5.3 2.2-1.8 2.2-1.8 6.1 0 3.9 1.7 6.1 1.7 2.3 5.8 2.3 1.5 0 3-.3t2.6-.8l.8 4.9q-1 .5-3 .9t-4.1.4q-3.3 0-5.7-1-2.5-1-4.1-2.8-1.6-1.8-2.3-4.3-.8-2.5-.8-5.4zm43.7-8.7q-1 1.1-2.6 2.9-1.6 1.9-3.4 4.2-1.8 2.3-3.7 4.8-1.8 2.4-3.3 4.7h13.3v5H1294v-3.7q1.1-2 2.7-4.3l3.4-4.6q1.7-2.4 3.4-4.5t3-3.7h-11.8v-5h19.5zm28.5 8.8q0 2.9-.8 5.4-.7 2.4-2.2 4.2-1.4 1.8-3.5 2.8-2.2.9-4.9.9-1.8 0-3.3-.4-1.5-.4-2.5-1v10h-6v-34q1.8-.5 4.5-.9 2.7-.5 5.6-.5 3.1 0 5.5 1 2.4.9 4.1 2.6 1.7 1.8 2.6 4.3.9 2.5.9 5.6zm-6.1.1q0-4-1.8-6.2-1.8-2.3-5.8-2.3-.8 0-1.7.1-.9.1-1.8.3v14.7q.8.6 2.1 1.1 1.3.4 2.8.4 3.2 0 4.7-2.2t1.5-5.9zm34.9-.2q0 3.1-.8 5.6-.9 2.5-2.5 4.2-1.7 1.8-4 2.8-2.2 1-5 1t-5-1q-2.3-1-3.9-2.8-1.6-1.7-2.5-4.2-1-2.5-.9-5.6-.1-3 .9-5.5.9-2.5 2.5-4.3 1.7-1.8 3.9-2.7 2.3-1 5-1t5 1q2.3.9 3.9 2.7 1.6 1.8 2.5 4.3.9 2.5.9 5.5zm-6.1 0q0-3.8-1.6-6.1-1.6-2.2-4.6-2.2-3 0-4.6 2.2-1.6 2.3-1.6 6.1 0 3.9 1.6 6.2 1.6 2.2 4.6 2.2 3 0 4.6-2.2 1.6-2.3 1.6-6.2zm18.1 8.6q2.3 0 3.4-.5 1.1-.6 1.1-2 0-1.3-1.2-2.1-1.1-.8-3.8-1.8-1.6-.6-3-1.3-1.3-.6-2.3-1.5-1-.9-1.5-2.2-.6-1.2-.6-3 0-3.6 2.6-5.6 2.6-2.1 7.1-2.1 2.2 0 4.3.4 2.1.5 3.1.9l-1.1 4.8q-1-.5-2.5-.8-1.5-.4-3.5-.4-1.8 0-3 .6-1.1.6-1.1 1.9 0 .6.2 1.1.2.5.8.9.5.5 1.4.9.9.4 2.2.8 2.1.8 3.6 1.6 1.4.8 2.4 1.7 1 1 1.4 2.2.4 1.2.4 3 0 3.7-2.7 5.5-2.7 1.9-7.8 1.9-3.4 0-5.4-.5-2.1-.6-3-.9l1.1-5q1.3.5 3.2 1 1.8.5 4.2.5zm38.6-8.5q0 2.9-.8 5.4-.8 2.4-2.2 4.2-1.4 1.8-3.5 2.8-2.2.9-4.9.9-1.8 0-3.3-.4-1.6-.4-2.5-1v10h-6v-34q1.8-.5 4.5-.9 2.6-.5 5.6-.5 3 0 5.4 1 2.5.9 4.2 2.6 1.7 1.8 2.6 4.3.9 2.5.9 5.6zm-6.1.1q0-4-1.8-6.2-1.8-2.3-5.8-2.3-.8 0-1.7.1-1 .1-1.8.3v14.7q.7.6 2 1.1 1.3.4 2.8.4 3.3 0 4.8-2.2t1.5-5.9zm34.9-.2q0 3.1-.9 5.6-.8 2.5-2.5 4.2-1.6 1.8-3.9 2.8-2.3 1-5 1-2.8 0-5-1-2.3-1-3.9-2.8-1.7-1.7-2.6-4.2-.9-2.5-.9-5.6 0-3 .9-5.5t2.6-4.3q1.6-1.8 3.9-2.7 2.3-1 5-1t5 1q2.3.9 3.9 2.7 1.6 1.8 2.5 4.3.9 2.5.9 5.5zm-6.1 0q0-3.8-1.6-6.1-1.7-2.2-4.6-2.2-3 0-4.6 2.2-1.7 2.3-1.7 6.1 0 3.9 1.7 6.2 1.6 2.2 4.6 2.2 2.9 0 4.6-2.2 1.6-2.3 1.6-6.2zm20.5 13.4q-2.6-.1-4.4-.6-1.7-.5-2.8-1.6-1-1-1.4-2.5-.4-1.5-.4-3.4v-29.6l5.9-1v29.5q0 1.1.2 1.8t.6 1.3q.4.5 1.2.8.8.2 1.9.4zm11.7-.5h-6V137h6zm.6-33.2q0 1.7-1.1 2.6-1.1 1-2.5 1-1.6 0-2.6-1-1.1-.9-1.1-2.6 0-1.7 1.1-2.7 1-1 2.6-1 1.4 0 2.5 1t1.1 2.7zm6 .7 5.9-1v7.8h9.2v5h-9.2v10.5q0 3.1 1 4.4 1 1.3 3.4 1.3 1.6 0 2.8-.3 1.3-.4 2-.7l1 4.8q-1 .4-2.7.9-1.7.4-3.9.4-2.8 0-4.6-.7-1.9-.7-2.9-2.1-1.1-1.4-1.6-3.4-.4-2-.4-4.6zm29.3 6.2q2.9 0 4.9.7 2 .7 3.2 2.1 1.3 1.3 1.8 3.2.5 1.9.5 4.1v15.6q-1.4.3-4.2.8-2.8.4-6.2.4-2.4 0-4.3-.5-1.9-.4-3.2-1.4-1.4-1-2.2-2.6-.7-1.5-.7-3.8t.8-3.8q.9-1.5 2.4-2.5 1.5-.9 3.4-1.3 1.9-.5 4.1-.5.9 0 2 .2 1.1.1 2.3.4v-1q0-1-.2-2-.3-.9-.9-1.6-.6-.7-1.6-1.1-1-.4-2.5-.4-2.1 0-3.8.3-1.7.3-2.8.7l-.8-4.9q1.2-.3 3.3-.7 2.2-.4 4.7-.4zm.4 22.2q2.8 0 4.2-.3v-6.6q-.5-.2-1.4-.3-.9-.2-2.1-.2-.9 0-2 .2-1 .1-1.8.5t-1.3 1.1q-.5.7-.5 1.8 0 2.1 1.4 2.9 1.3.9 3.5.9z" class="s0"/><path id="Path 3" d="M1145.8 92.3H891.4v85.1h254.4z" class="s1"/><path id="Path 4" d="M1145.8 177H891.4v84.7h254.4z" style="fill:#bb0a30"/><path id="Path 5" fill-rule="evenodd" d="M1146.2 262.1H891.1V92h255.1zm-.8-169.3H891.9v168.5h253.5z" style="fill:#808285"/><path id="Path 6" fill-rule="evenodd" d="M1770 220.3q-3.5 0-6-1t-4.1-2.9q-1.7-1.8-2.5-4.2-.8-2.5-.8-5.4v-21.4h6.3v20.8q0 2.3.5 3.9.5 1.7 1.5 2.7.9 1 2.2 1.5 1.4.5 3 .5t2.9-.5q1.4-.5 2.3-1.5 1-1 1.5-2.7.5-1.6.5-3.9v-20.8h6.3v21.4q0 2.9-.9 5.4-.8 2.4-2.4 4.2-1.7 1.9-4.2 2.9-2.6 1-6.1 1zm20.3-25.7q1.7-.4 4.5-.9 2.7-.4 6.1-.4 3.1 0 5.2.8 2.1.9 3.4 2.4 1.2 1.6 1.8 3.8.5 2.2.5 4.8v14.4h-6V206q0-2.1-.2-3.5-.3-1.5-.9-2.4-.6-.9-1.7-1.3t-2.6-.4q-1.1 0-2.4.1l-1.8.3v20.7h-5.9zm33.9 24.9h-5.9v-25.7h5.9zm.7-33.2q0 1.6-1.1 2.6t-2.6 1q-1.5 0-2.6-1t-1.1-2.6q0-1.8 1.1-2.8 1.1-.9 2.6-.9t2.6.9q1.1 1 1.1 2.8zm4.9 20.5q0-3.4 1-6 1-2.5 2.7-4.2 1.6-1.7 3.8-2.6 2.2-.9 4.4-.9 5.3 0 8.3 3.3 3 3.3 3 9.9v1.1q-.1.6-.1 1.1h-17q.3 3.1 2.2 4.8 2 1.7 5.6 1.7 2.2 0 4-.4 1.8-.4 2.8-.8l.8 4.8q-.7.6-1.6 1.2-.8.7-1.5 1.4-.8.8-1.3 1.5-.4.7-.4 1.3 0 1.3 1.7 1.3 1 0 2.2-.4l.5 4q-.8.3-2 .5-1.1.1-2.1.1-2.9 0-4.3-1-1.5-1.1-1.5-3 0-1.5.9-2.8 1-1.3 2.4-2.6-.3 0-.7.1h-.6q-3.4-.1-5.9-1.1-2.5-1-4.1-2.8-1.7-1.8-2.4-4.2-.8-2.4-.8-5.3zm17.2-2.7q0-1.2-.3-2.3-.3-1.1-1-1.9-.7-.9-1.6-1.3-1-.5-2.3-.5-1.4 0-2.4.5-1.1.5-1.8 1.4-.7.8-1.1 1.9-.4 1.1-.5 2.2zm25.4 15.4v-34.1h21.9v5.3h-15.7v8.4h14v5.2h-14v9.9h16.9v5.3zm48.7-.8q-1.7.5-4.4.9-2.8.5-6.1.5-3.1 0-5.2-.9t-3.3-2.4q-1.3-1.6-1.8-3.8-.6-2.2-.6-4.8v-14.4h6v13.5q0 4.1 1.2 5.9 1.2 1.7 4.2 1.7 1.1 0 2.3-.1 1.2-.1 1.8-.2v-20.8h5.9zm21.5-19.6q-.8-.2-2.1-.5t-3-.3q-1 0-2.1.2t-1.6.4v20.6h-5.9V195q1.7-.7 4.3-1.2 2.6-.6 5.7-.6.6 0 1.4.1.8 0 1.6.2.8.1 1.5.3.7.1 1.2.3zm27.6 7.5q0 3-.8 5.5-.9 2.5-2.6 4.3-1.6 1.8-3.9 2.8-2.3.9-5 .9-2.8 0-5-.9-2.3-1-3.9-2.8-1.6-1.8-2.5-4.3-1-2.5-1-5.5 0-3.1 1-5.6.9-2.5 2.5-4.2 1.7-1.8 3.9-2.8 2.3-.9 5-.9t5 .9q2.3 1 3.9 2.8 1.6 1.7 2.5 4.2.9 2.5.9 5.6zm-6.1 0q0-3.9-1.6-6.1-1.7-2.3-4.6-2.3-3 0-4.6 2.3-1.7 2.2-1.7 6.1 0 3.8 1.7 6.1 1.6 2.3 4.6 2.3 2.9 0 4.6-2.3 1.6-2.3 1.6-6.1zm34.8 0q0 3-.8 5.4-.7 2.5-2.2 4.3-1.4 1.7-3.5 2.7-2.2 1-4.9 1-1.8 0-3.3-.4-1.6-.5-2.5-1v10h-6v-34q1.8-.5 4.5-1 2.6-.4 5.6-.4 3 0 5.5.9 2.4 1 4.1 2.7 1.7 1.7 2.6 4.2.9 2.5.9 5.6zm-6.1.1q0-4-1.8-6.2t-5.8-2.2q-.8 0-1.7.1-1 0-1.8.3v14.7q.7.5 2.1 1 1.3.5 2.7.5 3.3 0 4.8-2.2t1.5-6zm10.2 0q0-3.4 1-5.9 1-2.6 2.7-4.3 1.7-1.7 3.9-2.6 2.1-.8 4.4-.8 5.3 0 8.3 3.3 2.9 3.3 3 9.8 0 .5-.1 1.1v1.1h-17q.2 3.1 2.2 4.8 1.9 1.7 5.6 1.7 2.2 0 4-.4 1.8-.4 2.8-.8l.8 4.9q-.5.2-1.4.5-.8.3-1.9.5-1.2.2-2.4.3-1.3.2-2.6.2-3.4 0-5.9-1-2.5-1-4.2-2.8-1.6-1.8-2.4-4.3-.8-2.4-.8-5.3zm17.3-2.6q0-1.3-.3-2.4-.4-1.1-1.1-1.9-.6-.8-1.6-1.3-.9-.4-2.3-.4-1.3 0-2.4.5-1 .5-1.7 1.3-.7.9-1.1 1.9-.4 1.1-.6 2.3zm8.6 24.5q-.6 0-1.8-.1-1.2-.1-2-.5l.7-4.9q1.1.4 2.6.4 2.1 0 3-1.2.8-1.2.8-3.6v-25h5.9v25.1q0 5-2.3 7.4-2.4 2.4-6.9 2.4zm9.9-42.4q0 1.7-1.1 2.7-1.1.9-2.6.9t-2.6-.9q-1.1-1-1.1-2.7 0-1.7 1.1-2.7 1.1-1 2.6-1t2.6 1q1.1 1 1.1 2.7zm12.8 29q2.3 0 3.4-.6t1.1-1.9q0-1.3-1.2-2.2-1.1-.8-3.8-1.8-1.6-.6-2.9-1.2-1.4-.7-2.4-1.6-1-.9-1.5-2.1-.6-1.3-.6-3.1 0-3.5 2.6-5.6 2.6-2 7.1-2 2.3 0 4.3.4 2.1.4 3.1.8l-1.1 4.8q-.9-.4-2.5-.8-1.5-.3-3.5-.3-1.8 0-3 .6-1.1.6-1.1 1.9 0 .6.2 1.1.2.5.8.9.5.4 1.4.8.9.5 2.2.9 2.1.8 3.6 1.5 1.4.8 2.4 1.8 1 .9 1.4 2.2.4 1.2.4 2.9 0 3.7-2.7 5.6-2.7 1.9-7.8 1.9-3.4 0-5.4-.6-2.1-.5-2.9-.9l1-5q1.3.6 3.2 1.1 1.8.5 4.2.5zm21.4-11.4q1.1-1.2 2.4-2.6 1.3-1.3 2.5-2.7 1.2-1.3 2.3-2.6 1.1-1.2 1.9-2.2h7q-2.4 2.8-5.1 5.7-2.8 3-5.5 5.8 1.5 1.2 3.1 3 1.6 1.7 3.1 3.7 1.6 1.9 2.9 3.9 1.3 2 2.2 3.7h-6.9q-.9-1.6-2-3.2-1.2-1.7-2.5-3.3-1.4-1.6-2.7-3-1.4-1.4-2.7-2.4v11.9h-6v-37.2l6-1zm29.2-10.7q2.9 0 4.9.7 2 .8 3.2 2.1 1.3 1.3 1.8 3.2.5 1.9.5 4.2v15.6q-.6.4-1.4 1.1-.8.6-1.6 1.4-.7.7-1.1 1.3-.3.6-.3 1.2 0 1.4 1.7 1.4.4 0 1-.1t1.2-.3l.5 4q-.8.3-1.9.4-1.1.2-2.2.2-3 0-4.4-1.1-1.3-1.1-1.3-3 0-1.1.5-2.1.6-1 1.4-1.9.7-.9 1.7-1.6-1 .1-2.1.2h-2.1q-2.4 0-4.3-.4-1.9-.5-3.2-1.5-1.4-.9-2.2-2.5-.7-1.6-.7-3.9 0-2.2.8-3.7.9-1.6 2.4-2.5 1.4-1 3.4-1.4 1.9-.4 4-.4 1 0 2.1.1t2.3.4v-1q0-1-.2-1.9-.3-1-.9-1.7-.6-.7-1.6-1.1-1-.4-2.5-.4-2.1 0-3.8.3-1.7.3-2.8.7l-.8-4.8q1.2-.4 3.3-.8 2.2-.4 4.7-.4zm.4 22.2q2.8 0 4.2-.3v-6.6q-.5-.1-1.4-.3-.9-.1-2.1-.1-.9 0-2 .1-1 .2-1.8.5-.8.4-1.3 1.1-.5.8-.5 1.8 0 2.2 1.4 3 1.3.8 3.5.8zm-437.1-69.6q0 4.4-1.4 7.7t-3.9 5.5q-2.6 2.2-6.1 3.2-3.6 1.1-7.9 1.1-2.1 0-4.7-.2t-5-.7v-33.1q2.4-.6 5-.7 2.7-.2 4.8-.2 4.2 0 7.8 1 3.5 1.1 6.1 3.2 2.5 2.1 3.9 5.4 1.4 3.3 1.4 7.8zm-22.8 12h1.5q.8.1 2.4.1 6.2 0 9.3-3.2 3.1-3.2 3.1-8.9 0-5.8-3-8.9-3-3.1-9.3-3.1-2.8 0-4 .1zm52-7.7q0 3-.9 5.5t-2.5 4.3q-1.6 1.8-3.9 2.8-2.3 1-5.1 1-2.7 0-5-1t-3.9-2.8q-1.6-1.8-2.5-4.3-.9-2.5-.9-5.5 0-3.1.9-5.6.9-2.4 2.5-4.2 1.7-1.8 4-2.7 2.2-1 4.9-1t5 1q2.3.9 3.9 2.7 1.7 1.8 2.6 4.2.9 2.5.9 5.6zm-6.1 0q0-3.9-1.7-6.1-1.6-2.2-4.6-2.2-2.9 0-4.6 2.2-1.6 2.2-1.6 6.1 0 3.9 1.6 6.1 1.7 2.3 4.6 2.3 3 0 4.6-2.3 1.7-2.2 1.7-6.1zm37 12.9h-6v-25.8h6zm.7-33.2q-.1 1.6-1.1 2.6-1.1 1-2.6 1t-2.6-1q-1.1-1-1.1-2.6 0-1.7 1.1-2.7 1.1-1 2.6-1t2.6 1q1 1 1.1 2.7zm-16-4.9q1.9 0 3.2.2 1.3.3 2 .6l-.9 4.9q-.7-.3-1.7-.5-.9-.2-2-.2-3 0-4.1 1.6-1.1 1.6-1.1 4.1v1.7h9.4v5h-9.4v20.7h-6v-27.5q0-5 2.6-7.8t8-2.8zm22.2 13.2q1.8-.5 4.5-.9 2.8-.4 6.1-.4 3.2 0 5.3.8 2.1.9 3.4 2.4 1.2 1.6 1.7 3.8.5 2.2.5 4.8v14.4h-5.9v-13.5q0-2.1-.3-3.5-.2-1.5-.9-2.4-.6-.9-1.6-1.3-1.1-.4-2.6-.4-1.1 0-2.4.1l-1.8.3v20.7h-6zm36.6-1.4q3 0 5 .7t3.2 2.1q1.2 1.3 1.7 3.2.6 1.9.6 4.1v15.6q-1.4.3-4.2.8-2.8.4-6.3.4-2.3 0-4.2-.5-1.9-.4-3.3-1.4-1.3-1-2.1-2.6-.8-1.5-.8-3.8t.9-3.8q.9-1.5 2.3-2.5 1.5-.9 3.5-1.3 1.9-.5 4-.5 1 0 2.1.2 1.1.1 2.3.4v-1q0-1-.2-2-.3-.9-.9-1.6-.6-.7-1.6-1.1-1-.4-2.6-.4-2 0-3.8.3-1.7.3-2.8.7l-.7-4.9q1.1-.4 3.3-.7 2.2-.4 4.6-.4zm.5 22.1q2.8.1 4.2-.2v-6.6q-.5-.2-1.4-.3-1-.2-2.1-.2-1 0-2 .2-1 .1-1.8.5t-1.3 1.1q-.5.7-.5 1.8 0 2.1 1.3 2.9 1.4.9 3.6.8zm16.5-20.7q1.7-.5 4.5-.9 2.7-.4 6.1-.4 3.1 0 5.2.8 2.2.9 3.4 2.4 1.3 1.6 1.8 3.8.5 2.2.5 4.8v14.4h-6v-13.5q0-2.1-.2-3.5-.3-1.5-.9-2.4-.6-.9-1.7-1.3-1-.4-2.6-.4-1.1 0-2.3.1-1.3.2-1.8.3v20.7h-6zm34.6 20.6q2.4 0 3.5-.5 1.1-.6 1.1-2 0-1.2-1.2-2.1-1.2-.8-3.8-1.8-1.6-.6-3-1.2-1.3-.7-2.3-1.6-1-.9-1.6-2.1-.5-1.3-.5-3.1 0-3.6 2.6-5.6 2.6-2 7.1-2 2.2 0 4.3.4 2.1.4 3.1.8l-1.1 4.8q-1-.4-2.5-.8t-3.6-.4q-1.8 0-2.9.6-1.1.7-1.1 1.9 0 .7.2 1.2t.8.9q.5.4 1.4.8.9.4 2.1.9 2.2.8 3.6 1.5 1.5.8 2.5 1.8.9.9 1.4 2.1.4 1.3.4 3 0 3.7-2.7 5.6-2.7 1.9-7.8 1.9-3.4 0-5.5-.6-2-.6-2.9-.9l1.1-5q1.3.6 3.1 1.1 1.9.4 4.2.4zm38.8-8.6q0 3.1-.8 5.6-.9 2.5-2.6 4.3-1.6 1.7-3.9 2.7-2.2 1-5 1t-5-1q-2.3-1-3.9-2.7-1.6-1.8-2.5-4.3-1-2.5-1-5.6 0-3 1-5.5.9-2.5 2.5-4.3 1.7-1.7 3.9-2.7 2.3-.9 5-.9t5 .9q2.3 1 3.9 2.7 1.6 1.8 2.5 4.3.9 2.5.9 5.5zm-6.1 0q0-3.8-1.6-6-1.7-2.3-4.6-2.3-3 0-4.6 2.3-1.7 2.2-1.7 6 0 3.9 1.7 6.2 1.6 2.3 4.6 2.3 2.9 0 4.6-2.3 1.6-2.3 1.6-6.2zm26.6-3.3q-1.2 4.4-2.5 8.5t-2.6 7.7h-4.8q-1-2.2-2.1-5.1-1.1-2.9-2.2-6.2-1.1-3.3-2.1-7-1.1-3.6-2.2-7.4h6.3q.5 2.1 1.1 4.4.6 2.4 1.2 4.9.6 2.5 1.3 4.9.7 2.3 1.4 4.3.8-2.3 1.5-4.7.7-2.4 1.3-4.8.7-2.4 1.2-4.7.6-2.3 1.1-4.3h4.5q.5 2 1 4.3.6 2.3 1.2 4.7.6 2.4 1.3 4.8.7 2.4 1.4 4.7.7-2 1.4-4.3.7-2.4 1.3-4.9.7-2.5 1.3-4.9.6-2.3 1-4.4h6.2q-1 3.8-2.1 7.4-1.1 3.7-2.2 7t-2.2 6.2q-1.1 2.9-2.1 5.1h-4.8q-1.3-3.6-2.7-7.7-1.3-4.1-2.4-8.5zm30.7-10.1q3 0 5 .7t3.2 2.1q1.2 1.3 1.8 3.2.5 1.9.5 4.1v15.6q-1.4.3-4.2.8-2.8.4-6.3.4-2.3 0-4.2-.5-1.9-.4-3.3-1.4-1.3-1-2.1-2.6-.7-1.5-.7-3.8t.8-3.8q.9-1.5 2.4-2.5 1.4-.9 3.4-1.3 1.9-.5 4-.5 1 0 2.1.2 1.1.1 2.3.4v-1q0-1-.2-2-.3-.9-.9-1.6-.6-.7-1.6-1.1-1-.4-2.5-.4-2.1 0-3.8.3-1.8.3-2.8.7l-.8-4.9q1.2-.4 3.3-.7 2.2-.4 4.6-.4zm.5 22.1q2.8 0 4.2-.2v-6.6q-.5-.2-1.4-.3-.9-.2-2.1-.2-1 0-2 .2-1 .1-1.8.5t-1.3 1.1q-.5.7-.5 1.8 0 2.1 1.3 2.9 1.4.8 3.6.8zm16.5-20.7q1.7-.5 4.5-.9t6.1-.4q3.1 0 5.3.8 2.1.9 3.3 2.4 1.3 1.6 1.8 3.8.5 2.2.5 4.8v14.4h-5.9v-13.5q0-2.1-.3-3.5-.3-1.5-.9-2.4-.6-.9-1.7-1.3-1-.4-2.5-.4-1.2 0-2.4.1l-1.8.3v20.7h-6zm26.7 12.2q0-3.4 1-6 1-2.5 2.7-4.2 1.7-1.7 3.8-2.6 2.2-.8 4.4-.8 5.4 0 8.3 3.3 3 3.2 3 9.8v1.1q0 .6-.1 1.1h-17q.3 3.1 2.2 4.8 2 1.7 5.7 1.7 2.1 0 3.9-.4 1.8-.4 2.9-.8l.7 4.8q-.5.3-1.3.6-.9.2-2 .4-1.1.3-2.4.4-1.2.2-2.6.2-3.4 0-5.9-1-2.5-1-4.1-2.8-1.6-1.8-2.4-4.3-.8-2.4-.8-5.3zm17.3-2.7q0-1.2-.4-2.3-.3-1.1-1-1.9-.7-.8-1.6-1.3-1-.5-2.3-.5-1.4 0-2.4.5-1 .6-1.8 1.4-.7.8-1.1 1.9-.4 1.1-.5 2.2zm47.2 2.6q0 2.9-.8 5.4-.7 2.5-2.1 4.2-1.5 1.8-3.6 2.8-2.2 1-4.9 1-1.8 0-3.3-.5-1.5-.4-2.5-1v10h-6v-34q1.9-.5 4.5-.9 2.7-.4 5.6-.4 3.1 0 5.5.9t4.1 2.7q1.7 1.7 2.6 4.2.9 2.5.9 5.6zm-6.1.1q0-4-1.8-6.2t-5.8-2.2h-1.7q-.9.1-1.8.4v14.7q.8.5 2.1 1t2.8.5q3.2 0 4.7-2.3 1.5-2.2 1.5-5.9zm26.2-7.6q-.8-.3-2.1-.6-1.3-.2-3-.2-1 0-2.1.2t-1.5.3v20.6h-6v-24.5q1.7-.6 4.3-1.2 2.6-.5 5.8-.5h1.3l1.6.2q.8.1 1.5.3l1.2.3zm23.7-1.1q-1 1-2.6 2.9-1.6 1.8-3.4 4.1-1.8 2.3-3.7 4.8-1.8 2.5-3.3 4.7h13.3v5h-20.5v-3.7q1.1-1.9 2.7-4.3l3.4-4.6q1.7-2.3 3.4-4.5 1.7-2.1 3-3.7h-11.8v-4.9h19.5zm3.4 8.8q0-3.4 1-6 1-2.5 2.7-4.2 1.7-1.7 3.8-2.6 2.2-.8 4.5-.8 5.3 0 8.3 3.2 2.9 3.3 2.9 9.9v1.1q0 .6-.1 1.1h-16.9q.2 3.1 2.2 4.8 1.9 1.7 5.6 1.7 2.2 0 4-.4 1.8-.4 2.8-.8l.8 4.8q-.5.3-1.4.6-.8.2-2 .4-1.1.3-2.3.4-1.3.2-2.6.2-3.4 0-5.9-1-2.6-1.1-4.2-2.8-1.6-1.8-2.4-4.3-.8-2.4-.8-5.3zm17.3-2.7q0-1.2-.4-2.3-.3-1.1-1-1.9-.6-.8-1.6-1.3-.9-.5-2.3-.5t-2.4.5q-1 .6-1.7 1.4-.7.8-1.1 1.9-.4 1.1-.6 2.2zm29.1-6.1q-.9 1-2.5 2.9-1.6 1.8-3.5 4.1-1.8 2.3-3.6 4.8-1.9 2.5-3.3 4.8h13.2v4.9h-20.4v-3.7q1.1-1.9 2.7-4.2 1.6-2.4 3.3-4.7 1.7-2.3 3.4-4.4 1.7-2.2 3.1-3.7H2093v-5h19.5z" class="s0"/><path id="Path 7" d="M2410.4 262.1h-255.1V92h255.1z" class="s4"/><path id="Path 8" d="m2282.9 112.3 2.1 6.4h6.7l-5.5 3.9 2.1 6.4-5.4-3.9-5.5 3.9 2.1-6.4-5.4-3.9h6.7zm0 112.2 2.1 6.4h6.7l-5.4 3.9 2 6.4-5.4-3.9-5.5 3.9 2.1-6.4-5.4-3.9h6.7zm-55.7-56.4 2.1 6.4h6.7l-5.4 4 2.1 6.4-5.5-4-5.4 4 2.1-6.4-5.5-4h6.8zm111.3 0 2.1 6.4h6.7l-5.4 4 2 6.4-5.4-4-5.5 4 2.1-6.4-5.4-4h6.7zm-27.9-48.1 2 6.4h6.8l-5.5 3.9 2.1 6.5-5.4-4-5.5 4 2.1-6.5-5.5-3.9h6.8zm-55.5 0 2.1 6.4h6.8l-5.5 4 2.1 6.4-5.5-4-5.4 4 2.1-6.4-5.5-4h6.8zm55.4 96.3 2.1 6.4h6.7l-5.4 4 2 6.4-5.4-4-5.4 4 2-6.4-5.4-4h6.7zm-55.4 0 2.1 6.4h6.7l-5.5 4 2.1 6.4-5.4-4-5.5 4 2.1-6.4-5.4-4h6.7zm75.8-76.2 2.1 6.4h6.8l-5.5 4 2.1 6.4-5.5-4-5.4 4 2.1-6.4-5.5-4h6.8zm-96.3 0 2.1 6.4h6.7l-5.4 4 2 6.4-5.4-4-5.4 4 2-6.4-5.4-4h6.7zm96.3 55.8 2.1 6.4h6.7l-5.5 3.9 2.1 6.4-5.4-3.9-5.5 3.9 2.1-6.4-5.4-3.9h6.7zm-96.3 0 2.1 6.4h6.8l-5.5 4 2.1 6.4-5.5-4-5.4 4 2.1-6.4-5.5-4h6.8z" class="s5"/><path id="Path 9" d="M170.1 283.3 56.7 262V92l113.4-35.5z" class="s4"/><path id="Path 10" d="M56.7 221.2V177c5.7 1.6 12.1 2.3 16.3-.2 9.1-5.5 23-22.2 23-22.2s-7.3 18-4.6 24.6c3 7.1 20.3 7.5 20.3 7.5S92.1 198.6 83 206.5c-9.4 8-15.9 37.6-15.9 37.6s-4.5-19-10.4-22.9z" class="s5"/><path id="Path 11" d="M170.1 143.3c-3.9 2.4-7.8 4.4-10.7 4.9-9.1 1.8-18.8-8.7-18.8-8.7s2.3 15.3-3.5 24.8c-6 9.9-25.4 22.3-25.4 22.3s21.4-4.1 25.6 2.5c4.4 7.2 5 32 5 32s11-29.8 20.9-33.9c1.9-.8 4.3-1.5 6.9-2.3z" style="fill:#e21d2c"/><path id="Path 12" d="M96 154.6s11-17.2 10.3-23.3c-.7-5.8-12-7.9-12-7.9s14.9-3.7 21.4-9.5c6.2-5.6 11.7-17.3 11.7-17.3s1.4 9.7 6.9 11c5.8 1.5 21.1-4.7 21.1-4.7s-12.1 11.5-16.8 17.7c-5 6.5 2 18.9 2 18.9s-12.9-4.4-20.1-3.1c-7.1 1.4-24.5 18.2-24.5 18.2z" class="s1"/><path id="Path 13" fill-rule="evenodd" d="M235.8 218.7q-1.8.6-4.5 1-2.7.5-5.6.5-3.1 0-5.5-1-2.4-.9-4.1-2.7-1.7-1.7-2.6-4.2-.9-2.5-.9-5.6 0-3 .8-5.5.7-2.5 2.2-4.3 1.5-1.7 3.6-2.7 2.1-.9 4.9-.9 1.8 0 3.3.4 1.4.4 2.4 1v-12.4l6-1zm-17.1-12.1q0 3.9 1.9 6.2 1.8 2.2 5.1 2.2 1.5 0 2.5-.1t1.6-.3v-14.7q-.8-.6-2.1-1.1-1.3-.4-2.7-.4-3.3 0-4.8 2.2t-1.5 6zm33.1 13.4q-2.6 0-4.4-.6-1.7-.5-2.8-1.5-1-1-1.4-2.5-.4-1.5-.4-3.4v-29.7l5.9-.9v29.4q0 1.1.2 1.8.2.8.6 1.3.4.5 1.2.8.8.3 2 .4zm14.2-26.9q2.9 0 4.9.8 2.1.7 3.3 2 1.2 1.4 1.7 3.3t.5 4.1v15.6q-1.4.3-4.2.7-2.7.5-6.2.5-2.3 0-4.3-.5-1.9-.4-3.2-1.4-1.4-1-2.1-2.6-.8-1.5-.8-3.9 0-2.2.9-3.7.8-1.5 2.3-2.5 1.5-.9 3.4-1.4 2-.4 4.1-.4 1 0 2 .1 1.1.2 2.3.5v-1q0-1.1-.2-2-.2-.9-.9-1.6-.6-.8-1.6-1.1-1-.4-2.5-.4-2.1 0-3.8.3-1.7.3-2.8.6l-.7-4.8q1.1-.4 3.2-.8 2.2-.4 4.7-.4zm.5 22.2q2.7 0 4.1-.3v-6.6q-.4-.1-1.4-.3-.9-.1-2-.1-1 0-2 .1-1 .2-1.9.6-.8.4-1.3 1.1-.5.7-.5 1.8 0 2.1 1.4 2.9 1.3.8 3.6.8zm38.6-30.2q7.4 0 11.3 2.7 3.9 2.7 3.9 8.2 0 7-6.8 9.4l2.1 2.8q1.2 1.6 2.4 3.5 1.3 1.9 2.4 3.9 1.1 2 2 3.9h-6.9l-2-3.6q-1.1-1.8-2.2-3.4-1.1-1.7-2.2-3.2-1.1-1.5-2-2.7h-5.2v12.9h-6.2v-33.6q2.3-.5 4.9-.7 2.5-.1 4.5-.1zm.5 5.3q-2 0-3.7.2v11h2.7q2.3 0 4-.2 1.8-.3 2.9-.9 1.2-.7 1.8-1.8.5-1 .5-2.7 0-1.6-.5-2.7-.6-1-1.7-1.7-1.2-.6-2.7-.9-1.5-.3-3.3-.3zm44 16.2q0 3.1-.9 5.6-.8 2.5-2.5 4.3-1.6 1.7-3.9 2.7-2.3 1-5 1-2.8 0-5-1-2.3-1-3.9-2.7-1.7-1.8-2.6-4.3-.9-2.5-.9-5.6 0-3 .9-5.5t2.6-4.3q1.6-1.7 3.9-2.7 2.3-1 5-1t5 1q2.3 1 3.9 2.7 1.6 1.8 2.5 4.3.9 2.5.9 5.5zm-6.1 0q0-3.8-1.6-6.1-1.7-2.2-4.6-2.2-3 0-4.6 2.2-1.7 2.3-1.7 6.1 0 3.9 1.7 6.2 1.6 2.2 4.6 2.2 2.9 0 4.6-2.2 1.6-2.3 1.6-6.2zm28.9-8.6q-1 1-2.6 2.9-1.6 1.8-3.4 4.1-1.8 2.3-3.7 4.8-1.8 2.5-3.3 4.7h13.3v5h-20.5v-3.7q1.1-1.9 2.7-4.3 1.6-2.3 3.4-4.6 1.7-2.3 3.4-4.5 1.7-2.1 3-3.6h-11.8v-5h19.5zm21.5 5.3q-1.2 4.4-2.5 8.5t-2.5 7.7H384q-1-2.2-2.1-5.1-1.1-2.9-2.2-6.2-1.1-3.3-2.1-7-1.1-3.6-2.2-7.4h6.3q.5 2.1 1.1 4.5.6 2.3 1.2 4.8.7 2.5 1.3 4.9.7 2.3 1.4 4.3.8-2.3 1.5-4.7.7-2.4 1.3-4.8.7-2.4 1.3-4.7.5-2.3 1-4.3h4.5q.5 2 1 4.3.6 2.3 1.2 4.7.6 2.4 1.3 4.8.7 2.4 1.4 4.7.7-2 1.4-4.3.7-2.4 1.3-4.9.7-2.5 1.3-4.8.6-2.4 1-4.5h6.2q-1 3.8-2.1 7.4-1.1 3.7-2.2 7t-2.2 6.2q-1 2.9-2.1 5.1H399q-1.3-3.6-2.7-7.7-1.3-4.1-2.4-8.5zm45 3.3q0 3.1-.8 5.6-.9 2.5-2.5 4.3-1.7 1.8-4 2.7-2.2 1-5 1t-5-1q-2.3-.9-3.9-2.7-1.6-1.8-2.5-4.3-.9-2.5-1-5.6.1-3 1-5.5t2.5-4.3q1.7-1.7 3.9-2.7 2.3-.9 5-.9t5 .9q2.3 1 3.9 2.7 1.6 1.8 2.5 4.3.9 2.5.9 5.5zm-6.1 0q0-3.8-1.6-6-1.6-2.3-4.6-2.3-3 0-4.6 2.3-1.6 2.2-1.6 6 0 3.9 1.6 6.2 1.6 2.3 4.6 2.3 3 0 4.6-2.3 1.6-2.3 1.6-6.2zm18.2-20.3q0 1.6-1.1 2.6-1 1-2.5 1t-2.6-1q-1.1-1-1.1-2.6 0-1.7 1.1-2.7 1.1-1 2.6-1t2.5 1q1.1 1 1.1 2.7zm-9.9 42.4q-.6 0-1.8-.1-1.1-.2-2-.5l.8-4.9q1.1.4 2.6.4 2.1 0 2.9-1.2.8-1.2.8-3.7v-24.9h6v25q0 5.1-2.4 7.5-2.4 2.4-6.9 2.4zm37.2-10q-1.7.5-4.5 1-2.7.4-6 .4-3.1 0-5.2-.9t-3.4-2.4q-1.2-1.6-1.8-3.8-.5-2.2-.5-4.8v-14.4h5.9v13.5q.1 4.1 1.3 5.9 1.2 1.8 4.2 1.8 1 0 2.3-.1 1.2-.1 1.7-.3v-20.8h6zm26.8-3.8q3.4 0 4.9-1.2 1.5-1.1 1.5-3.2 0-1.2-.5-2.1-.5-.9-1.5-1.6-.9-.7-2.3-1.3-1.4-.6-3.2-1.2l-3.4-1.4q-1.6-.8-2.9-1.9-1.2-1.1-2-2.7t-.8-3.8q0-4.6 3.2-7.3 3.2-2.6 8.7-2.6 3.2 0 5.7.7t3.9 1.6l-1.9 5q-1.7-1-3.7-1.4-1.9-.5-4.1-.5-2.5 0-3.9 1t-1.4 2.9q0 1.1.5 1.9.5.9 1.3 1.5.9.6 2 1.2 1.2.5 2.6 1 2.4.9 4.3 1.8t3.2 2.2q1.3 1.2 2 2.9t.7 4.1q0 4.7-3.3 7.2t-9.6 2.5q-2.1 0-3.9-.2-1.7-.3-3-.7-1.4-.4-2.4-.8t-1.6-.8l1.9-5.1q1.3.8 3.6 1.5 2.2.8 5.4.8zm41.2-8.3q0 3-.8 5.5-.7 2.4-2.2 4.2-1.4 1.8-3.5 2.7-2.2 1-4.9 1-1.8 0-3.3-.4-1.6-.5-2.5-1v10h-6v-34q1.8-.5 4.5-.9 2.6-.5 5.6-.5 3 0 5.5.9 2.4 1 4.1 2.7 1.7 1.8 2.6 4.3.9 2.4.9 5.5zm-6.1.1q0-3.9-1.8-6.2-1.8-2.2-5.8-2.2-.8 0-1.7.1-1 .1-1.8.3v14.7q.7.6 2 1 1.4.5 2.8.5 3.3 0 4.8-2.2t1.5-6zm34.5-.1q0 3-.9 5.6-.9 2.5-2.5 4.2-1.6 1.8-3.9 2.8-2.3 1-5.1 1-2.7 0-5-1t-3.9-2.8q-1.6-1.7-2.5-4.2-.9-2.6-.9-5.6 0-3.1.9-5.5.9-2.5 2.5-4.3 1.7-1.8 4-2.7 2.2-1 4.9-1t5 1q2.3.9 3.9 2.7 1.6 1.8 2.6 4.3.9 2.4.9 5.5zm-6.1 0q0-3.8-1.7-6.1-1.6-2.2-4.6-2.2-2.9 0-4.6 2.2-1.6 2.3-1.6 6.1 0 3.9 1.6 6.1 1.7 2.3 4.6 2.3 3 0 4.6-2.3 1.7-2.2 1.7-6.1zm8.2-6 4.8-2.4v-15.9l6-1v13.9l3.5-1.8 1.9 3.8-5.4 2.8v10.8q0 1.1.1 1.8.2.7.7 1.2.4.6 1.2.8.7.3 1.9.5l-.8 4.9q-2.7-.1-4.4-.6-1.8-.6-2.8-1.6-1-1-1.5-2.5-.4-1.5-.4-3.4V203l-2.9 1.4zm18.7 6.1q0-3.4 1-5.9 1-2.6 2.7-4.3 1.6-1.7 3.8-2.5 2.2-.9 4.4-.9 5.3 0 8.3 3.3 3 3.3 3 9.8v1.1q0 .7-.1 1.2h-17q.3 3.1 2.2 4.7 2 1.7 5.7 1.7 2.1 0 3.9-.3 1.8-.4 2.8-.9l.8 4.9q-.5.2-1.3.5-.9.3-2 .5t-2.4.4q-1.3.1-2.6.1-3.4 0-5.9-1-2.5-1-4.1-2.8-1.6-1.8-2.4-4.2-.8-2.5-.8-5.4zm17.2-2.6q0-1.3-.3-2.4-.3-1.1-1-1.9-.7-.8-1.6-1.3-1-.4-2.3-.4-1.4 0-2.4.5-1.1.5-1.8 1.3-.7.9-1.1 2-.4 1-.5 2.2zm10.2 2.5q0-2.8.9-5.3t2.5-4.3q1.7-1.8 4-2.9 2.4-1 5.3-1 3.7 0 6.9 1.3l-1.3 4.9q-1-.4-2.3-.7-1.3-.3-2.8-.3-3.5 0-5.3 2.2-1.8 2.1-1.8 6.1 0 3.9 1.7 6.1 1.7 2.2 5.8 2.2 1.5 0 3-.2 1.5-.3 2.6-.8l.8 4.9q-1 .5-3 .9t-4.1.4q-3.3 0-5.7-1-2.4-1-4-2.8-1.6-1.8-2.4-4.3-.8-2.5-.8-5.4zm43.8-8.7q-1 1.1-2.6 2.9-1.6 1.9-3.4 4.2-1.8 2.3-3.6 4.8-1.9 2.4-3.4 4.7H667v5h-20.4v-3.7q1-2 2.7-4.3 1.6-2.3 3.3-4.6 1.7-2.4 3.4-4.5t3-3.7h-11.8v-5h19.5zm5.3-3.3q1.8-.5 4.5-.9 2.8-.5 6.1-.5 3.2 0 5.3.9 2.1.8 3.3 2.4 1.3 1.5 1.8 3.7t.5 4.8v14.5h-5.9V206q0-2.1-.3-3.6-.3-1.4-.9-2.3-.6-.9-1.7-1.3-1-.5-2.5-.5-1.2 0-2.4.2-1.2.1-1.8.2v20.8h-6zm26.3 12.1q0-3.4 1-5.9 1-2.6 2.7-4.3 1.7-1.7 3.8-2.5 2.2-.9 4.4-.9 5.4 0 8.3 3.3 3 3.3 3 9.9v1.1q0 .6-.1 1.1h-17q.3 3.1 2.2 4.8 2 1.7 5.7 1.7 2.1 0 3.9-.4 1.8-.4 2.9-.9l.7 4.9q-.4.2-1.3.5t-2 .5q-1.1.2-2.4.4-1.2.1-2.6.1-3.4 0-5.9-1-2.5-1-4.1-2.8-1.6-1.8-2.4-4.2-.8-2.5-.8-5.4zm17.3-2.6q0-1.2-.4-2.3-.3-1.2-1-2t-1.6-1.2q-1-.5-2.3-.5-1.4 0-2.4.5t-1.8 1.4q-.7.8-1.1 1.9-.4 1.1-.5 2.2zm32.4 12.8q0 6.1-3.1 9-3.1 2.8-9.6 2.8-2.4 0-4.6-.4-2.2-.4-4.1-1l1.1-5.1q1.6.7 3.5 1.1 1.9.4 4.2.4 3.6 0 5.1-1.5 1.5-1.5 1.5-4.4v-1q-.8.5-2.3.9-1.4.5-3.3.5-2.5 0-4.5-.8-2.1-.8-3.5-2.3-1.5-1.6-2.3-3.9-.8-2.2-.8-5.2 0-2.8.9-5.2.8-2.4 2.5-4 1.6-1.7 4-2.6 2.4-1 5.4-1 2.9 0 5.5.5 2.6.4 4.4.9zM731.4 206q0 3.8 1.7 5.5 1.6 1.8 4.2 1.8 1.4 0 2.7-.4 1.3-.4 2-1v-13.3q-.6-.2-1.5-.3-1-.1-2.4-.1-3.2 0-5 2.1-1.7 2.2-1.7 5.7zm46.2.6q0 3.1-.9 5.6-.9 2.5-2.5 4.2-1.6 1.8-3.9 2.8-2.3 1-5.1 1-2.7 0-5-1-2.2-1-3.9-2.8-1.6-1.7-2.5-4.2-.9-2.5-.9-5.6 0-3 .9-5.5t2.6-4.3q1.6-1.8 3.9-2.7 2.2-1 4.9-1t5 1q2.3.9 3.9 2.7 1.7 1.8 2.6 4.3.9 2.5.9 5.5zm-6.1 0q0-3.8-1.7-6.1-1.6-2.2-4.6-2.2-2.9 0-4.6 2.2-1.6 2.3-1.6 6.1 0 3.9 1.6 6.2 1.7 2.2 4.6 2.2 3 0 4.6-2.2 1.7-2.3 1.7-6.2zm-559-43.8v-34.1h21.6v5.3h-15.4v8.7h13.7v5.2h-13.7v14.9zm46.5-.8q-1.7.5-4.5.9-2.7.5-6 .5-3.1 0-5.2-.9T240 160q-1.3-1.5-1.8-3.7-.6-2.2-.6-4.8v-14.4h6v13.5q0 4.1 1.2 5.9 1.2 1.7 4.2 1.7 1.1 0 2.3-.1 1.2-.1 1.8-.2v-20.8h5.9zm6.8-24.1q1.7-.5 4.4-1 2.8-.4 6.1-.4 3.2 0 5.3.8 2.1.9 3.4 2.5 1.2 1.5 1.7 3.7.6 2.2.6 4.8v14.5h-6v-13.6q0-2-.3-3.5-.2-1.4-.8-2.3-.7-1-1.7-1.4-1.1-.4-2.6-.4-1.1 0-2.4.2-1.2.1-1.8.2v20.8h-5.9z" class="s0"/><path id="Path 14" fill-rule="evenodd" d="M315.7 162q-1.7.6-4.4 1-2.7.5-5.7.5t-5.4-1q-2.4-.9-4.1-2.6-1.7-1.8-2.6-4.3-.9-2.5-.9-5.6 0-3 .7-5.5.8-2.5 2.3-4.3 1.4-1.7 3.6-2.7 2.1-.9 4.8-.9 1.9 0 3.3.4t2.5 1v-12.4l5.9-.9zm-17-12.2q0 3.9 1.8 6.2 1.9 2.2 5.2 2.2 1.4 0 2.4-.1t1.7-.3v-14.7q-.8-.6-2.1-1-1.3-.5-2.8-.5-3.2 0-4.7 2.2t-1.5 6zm44.9 12.2q-1.7.4-4.4.9-2.8.4-6.1.4-3.1 0-5.2-.9-2.1-.8-3.3-2.4-1.3-1.6-1.8-3.8-.6-2.2-.6-4.8V137h6v13.5q0 4.1 1.2 5.9 1.2 1.8 4.2 1.8 1.1 0 2.3-.1 1.2-.1 1.8-.3V137h5.9zm13.6-3.5q2.3 0 3.4-.5 1.1-.6 1.1-2 0-1.3-1.2-2.1-1.1-.8-3.8-1.8-1.6-.6-3-1.3-1.3-.6-2.3-1.5-1-.9-1.5-2.2-.6-1.2-.6-3 0-3.6 2.6-5.6 2.6-2.1 7.1-2.1 2.2 0 4.3.4 2.1.5 3.1.9l-1.1 4.8q-1-.5-2.5-.8-1.5-.4-3.5-.4-1.8 0-3 .6-1.1.6-1.1 1.9 0 .6.2 1.1.2.5.8.9.5.5 1.4.9.9.4 2.2.8 2.1.8 3.6 1.6 1.4.8 2.4 1.7 1 1 1.4 2.2.4 1.2.4 3 0 3.6-2.7 5.5t-7.8 1.9q-3.4 0-5.5-.5-2-.6-2.9-.9l1.1-5q1.3.5 3.2 1 1.8.5 4.2.5zm34-17.3q-1 1.1-2.6 3-1.6 1.8-3.4 4.1-1.9 2.3-3.7 4.8-1.9 2.5-3.3 4.7h13.3v5H371v-3.7q1.1-2 2.7-4.3t3.3-4.6q1.8-2.4 3.5-4.5t3-3.7h-11.9v-4.9h19.6zm3.3 8.8q0-3.4 1-6 1-2.5 2.7-4.2 1.7-1.7 3.8-2.6 2.2-.9 4.5-.9 5.3 0 8.2 3.3 3 3.3 3 9.9v1.1q0 .6-.1 1.1h-16.9q.2 3.1 2.1 4.8 2 1.7 5.7 1.7 2.1 0 3.9-.4 1.8-.4 2.9-.8l.8 4.8q-.5.3-1.4.5-.9.3-2 .5-1.1.3-2.4.4-1.2.2-2.6.2-3.4 0-5.9-1.1-2.5-1-4.1-2.8-1.6-1.8-2.4-4.2-.8-2.4-.8-5.3zm17.3-2.7q0-1.2-.4-2.3-.3-1.1-1-1.9-.6-.9-1.6-1.3-1-.5-2.3-.5-1.4 0-2.4.5t-1.8 1.4q-.7.8-1.1 1.9-.4 1.1-.5 2.2zm27.7 15.4v-34.1h21.8v5.3h-15.6v8.4h13.9v5.2h-13.9v10h16.8v5.2zm48.8-.8q-1.7.5-4.5.9-2.8.5-6 .5-3.1 0-5.2-.9t-3.4-2.4q-1.2-1.6-1.8-3.8-.5-2.2-.5-4.8V137h5.9v13.5q0 4.1 1.2 5.9 1.2 1.7 4.2 1.7 1.1 0 2.3-.1 1.2-.1 1.8-.2V137h6zm21.4-19.6q-.8-.2-2.1-.5t-3-.3q-1 0-2.1.2t-1.5.4v20.6h-6v-24.5q1.7-.7 4.3-1.2 2.6-.6 5.8-.6.5 0 1.3.1.8 0 1.6.2.8.1 1.5.3.8.1 1.2.3zm27.7 7.5q0 3-.9 5.5t-2.5 4.3q-1.7 1.8-3.9 2.8-2.3.9-5.1.9-2.7 0-5-.9-2.3-1-3.9-2.8-1.6-1.8-2.5-4.3-.9-2.5-.9-5.5 0-3.1.9-5.6.9-2.5 2.5-4.2 1.7-1.8 4-2.8 2.2-.9 4.9-.9t5 .9q2.3 1 3.9 2.8 1.6 1.7 2.6 4.2.9 2.5.9 5.6zm-6.1 0q0-3.9-1.7-6.1-1.6-2.3-4.6-2.3-2.9 0-4.6 2.3-1.6 2.2-1.6 6.1 0 3.9 1.6 6.1 1.7 2.3 4.6 2.3 3 0 4.6-2.3 1.7-2.2 1.7-6.1zm34.8 0q0 3-.8 5.4-.8 2.5-2.2 4.3-1.4 1.7-3.6 2.7-2.1 1-4.8 1-1.8 0-3.4-.4-1.5-.5-2.5-1v10h-5.9v-34q1.8-.5 4.5-1 2.6-.4 5.6-.4 3 0 5.4.9 2.4.9 4.1 2.7 1.7 1.7 2.6 4.2 1 2.5 1 5.6zm-6.1.1q-.1-4-1.8-6.2-1.8-2.2-5.8-2.2-.9 0-1.8.1-.9 0-1.8.3v14.7q.8.5 2.1 1t2.8.5q3.2 0 4.8-2.2 1.5-2.2 1.5-6zm10.2 0q0-3.4 1-5.9 1-2.6 2.7-4.3 1.6-1.7 3.8-2.6 2.2-.8 4.4-.8 5.4 0 8.3 3.3 3 3.3 3 9.8v1.1q0 .6-.1 1.1h-17q.3 3.1 2.2 4.8 2 1.7 5.7 1.7 2.1 0 3.9-.4 1.8-.4 2.8-.8l.8 4.9q-.5.2-1.3.5-.9.3-2 .5t-2.4.3q-1.3.2-2.6.2-3.4 0-5.9-1-2.5-1-4.1-2.8-1.6-1.8-2.4-4.3-.8-2.4-.8-5.3zm17.3-2.6q0-1.3-.4-2.4-.3-1.1-1-1.9-.7-.8-1.6-1.3-1-.4-2.3-.4-1.4 0-2.4.5-1.1.5-1.8 1.3-.7.9-1.1 1.9-.4 1.1-.5 2.3zm18.3-17.9q0 1.7-1.1 2.7-1.1.9-2.6.9t-2.6-.9q-1-1-1-2.7 0-1.7 1-2.7 1.1-1 2.6-1t2.6 1q1.1 1 1.1 2.7zm-9.9 42.4q-.6 0-1.8-.1-1.2-.1-2-.5l.7-4.9q1.1.4 2.7.4 2 0 2.9-1.2.8-1.2.8-3.6v-25h5.9V162q0 5-2.3 7.4-2.4 2.4-6.9 2.4zm22.7-13.4q2.4 0 3.5-.6t1.1-1.9q0-1.3-1.2-2.2-1.2-.8-3.8-1.8-1.6-.6-3-1.2-1.3-.7-2.3-1.6-1-.9-1.6-2.1-.5-1.3-.5-3.1 0-3.5 2.6-5.6 2.6-2 7-2 2.3 0 4.4.4 2 .4 3.1.8l-1.1 4.8q-1-.4-2.5-.8-1.5-.3-3.6-.3-1.8 0-2.9.6-1.1.6-1.1 1.9 0 .6.2 1.1.2.5.7.9.6.4 1.5.8.9.5 2.1.9 2.1.8 3.6 1.6 1.5.7 2.5 1.7.9.9 1.4 2.2.4 1.2.4 2.9 0 3.7-2.7 5.6-2.8 1.9-7.8 1.9-3.4 0-5.5-.6-2.1-.5-2.9-.9l1-5q1.4.6 3.2 1.1 1.9.5 4.2.5zM640 147q1.1-1.2 2.4-2.6 1.3-1.3 2.5-2.7 1.2-1.3 2.3-2.6 1.1-1.2 1.9-2.2h7.1q-2.5 2.8-5.2 5.7-2.7 3-5.5 5.8 1.5 1.2 3.1 3 1.6 1.7 3.1 3.7 1.6 1.9 2.9 3.9 1.3 2 2.2 3.7h-6.9q-.9-1.6-2-3.2-1.2-1.7-2.5-3.3-1.3-1.6-2.7-3-1.4-1.4-2.7-2.4v11.9h-6v-37.2l6-1zm26.7 15.7h-5.9v-25.8h5.9zm.7-33.2q0 1.6-1.1 2.6t-2.6 1q-1.5 0-2.6-1-1-1-1-2.6 0-1.7 1-2.7 1.1-1 2.6-1t2.6 1q1.1 1 1.1 2.7zm4.1 20.5q0-3.4 1-6 1-2.5 2.7-4.2 1.6-1.7 3.8-2.6 2.2-.8 4.4-.8 5.3 0 8.3 3.3 3 3.3 3 9.8v1.1q-.1.6-.1 1.1h-17q.3 3.1 2.2 4.8 1.9 1.7 5.6 1.7 2.2 0 4-.4 1.8-.4 2.8-.8l.8 4.8q-.5.3-1.3.6-.9.2-2 .5-1.1.2-2.4.3-1.3.2-2.6.2-3.4 0-5.9-1-2.5-1-4.1-2.8-1.7-1.8-2.4-4.3-.8-2.4-.8-5.3zm17.2-2.7q0-1.2-.3-2.3-.4-1.1-1-1.9-.7-.8-1.6-1.3-1-.5-2.3-.5-1.4 0-2.4.5-1.1.6-1.8 1.4-.7.8-1.1 1.9-.4 1.1-.5 2.2z" class="s0"/></g></svg>