<svg xmlns="http://www.w3.org/2000/svg" height="161.28" width="1801.952"><path d="M1620.538 146.153h181.414V25.2h-181.414v120.953" fill="#254aa5"/><path d="M1707.378 51.563l3.827-2.796 3.827 2.796-1.454-4.518 3.894-2.793h-4.8l-1.467-4.57-1.453 4.57h-4.814l3.88 2.793-1.44 4.518M1687.565 56.88l3.827-2.796 3.826 2.796-1.453-4.512 3.893-2.796h-4.8l-1.466-4.587-1.467 4.598-4.787-.011 3.88 2.796-1.453 4.512M1676.885 59.524l-1.453 4.583-4.8-.011 3.88 2.796-1.44 4.523 3.813-2.787 3.84 2.787-1.453-4.523 3.893-2.796h-4.8l-1.48-4.572M1671.578 88.384l3.827 2.81-1.453-4.513 3.88-2.8h-4.787l-1.467-4.582-1.48 4.597-4.786-.015 3.88 2.8-1.44 4.512 3.826-2.809M1678.365 103.727l-1.48-4.574-1.453 4.574h-4.8l3.88 2.805-1.454 4.508 3.827-2.801 3.84 2.801-1.467-4.508 3.907-2.805h-4.8M1692.885 118.247l-1.467-4.568-1.48 4.58-4.786-.012 3.893 2.8-1.453 4.517 3.826-2.8 3.84 2.8-1.466-4.517 3.893-2.8h-4.8M1712.672 123.512l-1.467-4.587-1.467 4.587h-4.8l3.894 2.79-1.467 4.517 3.84-2.795 3.84 2.795-1.48-4.518 3.907-2.789h-4.8M1732.458 118.247l-1.466-4.568-1.48 4.58-4.774-.012 3.867 2.8-1.44 4.517 3.827-2.8 3.826 2.8-1.453-4.517 3.907-2.8h-4.814M1746.992 103.727l-1.48-4.574-1.454 4.574h-4.8l3.894 2.805-1.48 4.508 3.84-2.801 3.84 2.801-1.467-4.508 3.907-2.805h-4.8M1757.032 83.825h-4.8l-1.44-4.577-1.494 4.577h-4.773l3.893 2.8-1.48 4.518 3.854-2.8 3.826 2.8-1.466-4.518 3.88-2.8M1741.685 71.343l3.827-2.786 3.84 2.786-1.467-4.512 3.893-2.787h-4.786l-1.48-4.59-1.454 4.605-4.786-.015 3.88 2.787-1.467 4.512M1731.045 44.99l-1.453 4.593-4.8-.015 3.893 2.8-1.453 4.527 3.826-2.811 3.814 2.81-1.44-4.526 3.88-2.8h-4.8l-1.467-4.579" fill="#fff200"/><path d="M1199.707 116.544V96.587h12.184v2.394h-9.39v5.932h8.35v2.331h-8.35v6.915h10.11v2.385h-12.904M1227.215 115.801c-.616.15-1.426.314-2.434.488-1.005.175-2.177.255-3.501.255-1.153 0-2.12-.164-2.907-.499-.79-.338-1.42-.813-1.902-1.425-.483-.617-.823-1.341-1.035-2.175-.212-.837-.319-1.762-.319-2.781v-8.41h2.678v7.833c0 1.825.285 3.132.864 3.918.577.788 1.545 1.183 2.909 1.183.29 0 .59-.01.892-.033.308-.019.599-.044.867-.067.269-.033.509-.061.732-.09.222-.027.38-.066.476-.103v-12.642h2.68v14.548M1237.208 101.253c.23 0 .496.014.795.044.294.028.588.068.877.115.29.048.55.095.79.141.242.052.415.096.535.134l-.462 2.333c-.212-.081-.56-.17-1.051-.277-.487-.104-1.117-.156-1.884-.156-.501 0-.997.052-1.49.156-.486.108-.807.178-.96.216v12.585h-2.68v-14.34c.634-.233 1.42-.452 2.36-.65.945-.202 1.998-.3 3.17-.3M1255.872 108.715c0 1.186-.173 2.269-.52 3.228-.347.954-.827 1.788-1.453 2.476a6.603 6.603 0 01-2.227 1.598 7.13 7.13 0 01-2.827.562 7.13 7.13 0 01-2.826-.562 6.475 6.475 0 01-2.227-1.598c-.627-.688-1.107-1.522-1.453-2.476-.347-.959-.52-2.042-.52-3.228 0-1.171.173-2.244.52-3.215.346-.967.826-1.795 1.453-2.492a6.423 6.423 0 012.227-1.599 7.084 7.084 0 012.826-.56c1.014 0 1.96.187 2.827.56.853.375 1.6.911 2.227 1.599.626.697 1.106 1.525 1.453 2.492.347.97.52 2.044.52 3.215m-2.8 0c0-1.692-.373-3.03-1.133-4.018s-1.787-1.486-3.094-1.486c-1.306 0-2.333.498-3.106 1.486-.747.988-1.134 2.326-1.134 4.018 0 1.69.387 3.03 1.134 4.017.773.993 1.8 1.484 3.106 1.484 1.307 0 2.334-.49 3.094-1.484.76-.987 1.133-2.327 1.133-4.017M1272.699 109.087c0 1.133-.147 2.182-.454 3.142-.293.956-.733 1.783-1.306 2.475a5.894 5.894 0 01-2.12 1.613c-.84.388-1.787.575-2.867.575-.867 0-1.627-.117-2.293-.348-.654-.227-1.147-.447-1.48-.66v5.996h-2.68v-19.845c.64-.156 1.426-.327 2.373-.508.96-.184 2.053-.274 3.307-.274 1.146 0 2.186.184 3.106.55.92.362 1.707.881 2.36 1.553.654.673 1.16 1.497 1.52 2.465.347.97.534 2.056.534 3.266m-2.8 0c0-1.747-.427-3.092-1.294-4.034-.866-.94-2.026-1.409-3.453-1.409-.813 0-1.44.028-1.893.083a8.314 8.314 0 00-1.08.204v9.446c.333.274.8.528 1.413.778a5.254 5.254 0 002.013.376c.774 0 1.427-.143 1.974-.42.546-.271 1-.658 1.346-1.152.347-.484.587-1.063.747-1.722.147-.669.227-1.378.227-2.15M1275.485 108.744c0-1.328.2-2.484.574-3.472.386-.99.893-1.808 1.533-2.467a6.201 6.201 0 012.187-1.468 6.95 6.95 0 012.533-.484c2.013 0 3.56.627 4.64 1.882 1.08 1.256 1.613 3.176 1.613 5.749v.447c0 .184-.013.349-.04.5h-10.24c.107 1.557.56 2.737 1.347 3.542.787.808 2.013 1.21 3.693 1.21.934 0 1.734-.076 2.374-.242.64-.164 1.133-.324 1.453-.473l.373 2.243c-.333.173-.893.353-1.706.546-.827.194-1.747.294-2.787.294-1.307 0-2.427-.199-3.387-.59-.946-.396-1.733-.94-2.346-1.629a6.632 6.632 0 01-1.36-2.464c-.307-.95-.454-1.99-.454-3.124m10.28-1.47c.027-1.206-.28-2.2-.906-2.98-.627-.778-1.48-1.169-2.574-1.169-.613 0-1.16.122-1.626.363-.467.235-.867.55-1.2.93-.32.387-.574.83-.76 1.327a6.176 6.176 0 00-.36 1.53h7.426M1289.832 121.935c-.227 0-.533-.032-.893-.087a4.85 4.85 0 01-.92-.23l.346-2.19c.187.057.414.11.667.147.24.037.467.056.68.056.92 0 1.587-.282 1.973-.854.4-.562.587-1.394.587-2.492v-14.717h2.68v14.69c0 1.925-.427 3.347-1.307 4.28-.88.93-2.146 1.397-3.813 1.397m3.773-23.071a1.73 1.73 0 01-1.226-.476c-.334-.315-.507-.748-.507-1.281 0-.539.173-.968.507-1.284a1.73 1.73 0 011.226-.475c.48 0 .88.16 1.227.475.333.316.507.745.507 1.284 0 .533-.174.966-.507 1.281a1.753 1.753 0 01-1.227.476M1302.912 114.272c1.093 0 1.907-.145 2.427-.432.533-.29.8-.75.8-1.379 0-.653-.267-1.177-.787-1.556-.52-.388-1.373-.82-2.56-1.296-.573-.229-1.12-.472-1.653-.71a5.653 5.653 0 01-1.374-.848 3.87 3.87 0 01-.92-1.179c-.226-.461-.346-1.032-.346-1.701 0-1.326.493-2.375 1.466-3.151.987-.781 2.32-1.17 4.014-1.17.413 0 .84.022 1.253.074.427.047.827.104 1.187.17.373.067.693.14.973.217.267.078.493.145.64.201l-.493 2.305c-.28-.156-.734-.317-1.347-.476-.613-.162-1.36-.244-2.213-.244-.76 0-1.414.147-1.96.446-.56.298-.84.764-.84 1.397 0 .327.053.617.186.867.12.245.32.47.574.673.266.201.586.392.973.565.387.168.84.352 1.373.546.72.268 1.347.532 1.907.79.56.263 1.027.559 1.427.908.386.348.693.762.906 1.251.214.496.307 1.093.307 1.803 0 1.382-.507 2.432-1.533 3.138-1.027.714-2.494 1.063-4.387 1.063-1.333 0-2.373-.105-3.12-.325-.747-.22-1.253-.39-1.52-.508l.493-2.3c.307.112.8.282 1.467.513.667.23 1.56.348 2.68.348M1317.539 108.31c.573.443 1.186.991 1.826 1.643.64.647 1.28 1.36 1.907 2.118a43.287 43.287 0 011.773 2.301c.547.78 1.027 1.505 1.414 2.172h-3.147c-.4-.667-.867-1.355-1.4-2.057-.533-.7-1.08-1.368-1.653-2.012a21.72 21.72 0 00-1.76-1.775 15.637 15.637 0 00-1.694-1.353v7.197h-2.68V94.656l2.68-.461v13.656l1.52-1.531a53.17 53.17 0 001.64-1.697c.547-.575 1.054-1.131 1.534-1.656.48-.528.893-.996 1.24-1.399h3.133c-.44.484-.92 1.007-1.44 1.585-.507.574-1.053 1.159-1.6 1.747-.56.583-1.133 1.172-1.693 1.753-.574.591-1.094 1.135-1.6 1.658M1328.339 98.864c-.48 0-.88-.161-1.227-.476-.333-.32-.493-.744-.493-1.287 0-.529.16-.962.493-1.278a1.752 1.752 0 011.227-.475c.48 0 .893.16 1.226.475.334.316.507.749.507 1.278 0 .543-.173.967-.507 1.287a1.73 1.73 0 01-1.226.476m1.36 17.68h-2.68v-14.976h2.68v14.976M1340.832 116.544V96.587h12.053v2.394h-9.253v6.016h8.213v2.363h-8.213v9.184h-2.8M1367.192 115.801c-.614.15-1.427.314-2.427.488-1.013.175-2.187.255-3.507.255-1.146 0-2.12-.164-2.906-.499a4.86 4.86 0 01-1.907-1.425c-.48-.617-.813-1.341-1.027-2.175-.213-.837-.32-1.762-.32-2.781v-8.41h2.68v7.833c0 1.825.28 3.132.867 3.918.573.788 1.533 1.183 2.907 1.183.28 0 .586-.01.893-.033.307-.019.587-.044.867-.067.266-.033.506-.061.733-.09.227-.027.373-.066.467-.103v-12.642h2.68v14.548M1371.658 102c.614-.155 1.427-.313 2.454-.488 1.013-.17 2.186-.259 3.506-.259 1.187 0 2.187.171 2.974.503.786.335 1.413.81 1.88 1.41.466.607.8 1.333 1 2.18.186.843.28 1.769.28 2.79v8.408h-2.667v-7.833c0-.916-.067-1.704-.2-2.358-.12-.654-.32-1.182-.613-1.585a2.425 2.425 0 00-1.16-.88c-.467-.179-1.067-.273-1.774-.273a16.725 16.725 0 00-1.773.104c-.28.026-.533.061-.747.098-.226.038-.386.066-.48.084v12.643h-2.68V102M1397.725 94.313l2.68-.461v21.916c-.613.173-1.4.347-2.36.521-.96.175-2.067.255-3.32.255-1.147 0-2.187-.179-3.107-.54-.92-.37-1.706-.884-2.36-1.557-.653-.675-1.16-1.498-1.506-2.462-.36-.969-.534-2.066-.534-3.274 0-1.15.147-2.208.44-3.167.294-.96.734-1.783 1.307-2.475a5.85 5.85 0 012.12-1.613c.84-.388 1.8-.58 2.867-.58.866 0 1.626.117 2.293.35.667.23 1.147.45 1.48.66zm0 10.082c-.333-.272-.8-.53-1.413-.78a5.28 5.28 0 00-2.014-.371c-.773 0-1.426.136-1.973.415-.547.277-1 .661-1.347 1.152-.346.489-.586 1.066-.746 1.74-.147.677-.227 1.39-.227 2.16 0 1.75.44 3.101 1.293 4.046.867.95 2.014 1.431 3.454 1.431.733 0 1.346-.037 1.84-.105a9.303 9.303 0 001.133-.211v-9.477M1416.792 115.801c-.614.15-1.427.314-2.427.488-1.013.175-2.187.255-3.507.255-1.146 0-2.12-.164-2.906-.499a4.86 4.86 0 01-1.907-1.425c-.48-.617-.813-1.341-1.027-2.175-.213-.837-.32-1.762-.32-2.781v-8.41h2.68v7.833c0 1.825.28 3.132.867 3.918.573.788 1.533 1.183 2.907 1.183.28 0 .586-.01.893-.033.307-.019.587-.044.867-.067.266-.033.506-.061.733-.09.213-.027.373-.066.467-.103v-12.642h2.68v14.548M1424.738 114.272c1.094 0 1.907-.145 2.44-.432.52-.29.787-.75.787-1.379 0-.653-.253-1.177-.773-1.556-.52-.388-1.374-.82-2.56-1.296a37.081 37.081 0 01-1.667-.71 5.828 5.828 0 01-1.36-.848 3.911 3.911 0 01-.933-1.179c-.227-.461-.334-1.032-.334-1.701 0-1.326.48-2.375 1.467-3.151.987-.781 2.32-1.17 4-1.17.427 0 .84.022 1.267.074.426.047.813.104 1.186.17a11.19 11.19 0 011.613.419l-.493 2.304c-.293-.156-.733-.317-1.346-.476-.627-.162-1.36-.244-2.227-.244-.747 0-1.4.147-1.96.446-.56.298-.827.764-.827 1.397 0 .327.054.617.187.867.12.245.307.47.573.673.254.201.574.392.96.565.387.168.854.352 1.387.546.707.268 1.347.532 1.907.79.546.263 1.026.559 1.426.908.387.348.694.762.907 1.251.2.496.307 1.093.307 1.803 0 1.382-.507 2.432-1.534 3.138-1.026.714-2.493 1.063-4.4 1.063-1.32 0-2.36-.105-3.106-.325-.747-.22-1.254-.39-1.52-.508l.48-2.3c.306.112.8.282 1.466.513.68.23 1.574.348 2.68.348M1443.898 103.587c-.4.442-.933 1.064-1.6 1.874-.666.803-1.373 1.696-2.133 2.675-.76.983-1.52 2.01-2.28 3.081a57.937 57.937 0 00-2 3.084h8.24v2.25h-11.427v-1.79c.454-.849 1.027-1.773 1.694-2.79a62.521 62.521 0 012.12-3.04 89.097 89.097 0 012.16-2.855c.706-.89 1.306-1.648 1.826-2.259h-7.4v-2.242h10.8v2.012M1458.698 114.13c2.92 0 4.387-.997 4.387-2.995 0-.614-.133-1.142-.387-1.572a3.895 3.895 0 00-1.066-1.127 6.94 6.94 0 00-1.507-.817 39.75 39.75 0 00-1.8-.691c-.72-.25-1.427-.532-2.067-.852a7.223 7.223 0 01-1.706-1.121 4.749 4.749 0 01-1.134-1.543c-.28-.592-.426-1.31-.426-2.159 0-1.746.6-3.109 1.8-4.09 1.186-.982 2.826-1.466 4.92-1.466 1.2 0 2.306.126 3.293.384 1 .263 1.72.542 2.173.852l-.893 2.272c-.4-.241-1-.489-1.8-.729-.787-.244-1.72-.361-2.773-.361-.534 0-1.04.056-1.507.174a3.73 3.73 0 00-1.2.518c-.347.225-.613.52-.827.88-.2.352-.293.766-.293 1.25 0 .538.107.99.307 1.356.213.362.506.688.893.96.387.283.827.536 1.347.767.506.225 1.066.461 1.68.69.866.343 1.653.689 2.373 1.035a7.313 7.313 0 011.867 1.243 4.936 4.936 0 011.24 1.71c.28.667.426 1.466.426 2.402 0 1.75-.64 3.097-1.92 4.037-1.28.938-3.08 1.414-5.4 1.414-.786 0-1.506-.059-2.173-.163a18.225 18.225 0 01-1.773-.37c-.52-.146-.96-.303-1.334-.463a14.417 14.417 0 01-.88-.418l.84-2.306c.427.249 1.107.534 2.014.833.906.31 2 .467 3.306.467M1482.258 109.087c0 1.133-.146 2.182-.44 3.142-.306.956-.746 1.783-1.32 2.475a5.963 5.963 0 01-2.106 1.613c-.84.388-1.8.575-2.867.575-.867 0-1.627-.117-2.293-.348-.667-.227-1.16-.447-1.48-.66v5.996h-2.68v-19.845a46.083 46.083 0 012.373-.508c.947-.184 2.053-.274 3.293-.274 1.16 0 2.2.184 3.12.55.92.362 1.707.881 2.36 1.553.654.673 1.147 1.497 1.507 2.465.36.97.533 2.056.533 3.266m-2.786 0c0-1.747-.44-3.092-1.307-4.034-.853-.94-2.013-1.409-3.453-1.409-.8 0-1.44.028-1.88.083a8.314 8.314 0 00-1.08.204v9.446c.32.274.786.528 1.4.778a5.322 5.322 0 002.026.376c.76 0 1.427-.143 1.974-.42.546-.271.986-.658 1.333-1.152.347-.484.6-1.063.747-1.722.16-.669.24-1.378.24-2.15M1499.112 108.715c0 1.186-.174 2.269-.52 3.228-.347.954-.827 1.788-1.454 2.476a6.475 6.475 0 01-2.226 1.598 7.13 7.13 0 01-2.827.562 7.13 7.13 0 01-2.827-.562 6.475 6.475 0 01-2.226-1.598c-.627-.688-1.107-1.522-1.454-2.476-.346-.959-.52-2.042-.52-3.228 0-1.171.174-2.244.52-3.215.347-.967.827-1.795 1.454-2.492a6.423 6.423 0 012.226-1.599 7.084 7.084 0 012.827-.56c1.013 0 1.96.187 2.827.56.866.375 1.6.911 2.226 1.599.627.697 1.107 1.525 1.454 2.492.346.97.52 2.044.52 3.215m-2.8 0c0-1.692-.374-3.03-1.134-4.018-.76-.988-1.786-1.486-3.093-1.486s-2.333.498-3.093 1.486c-.76.988-1.134 2.326-1.134 4.018 0 1.69.374 3.03 1.134 4.017.76.993 1.786 1.484 3.093 1.484s2.333-.49 3.093-1.484c.76-.987 1.134-2.327 1.134-4.017M1507.632 116.835c-1.64-.036-2.814-.396-3.507-1.063-.693-.677-1.04-1.721-1.04-3.141v-5.874l-1.64.834-.92-1.788 2.56-1.294v-9.853l2.68-.461v8.93l2.107-1.094.893 1.786-3 1.558v6.826c0 .439.04.804.107 1.092.08.287.213.518.386.691.174.175.4.301.68.39.294.086.654.16 1.08.22l-.386 2.24M1510.032 108.744c0-1.328.186-2.484.573-3.472.387-.99.893-1.808 1.533-2.467a6.201 6.201 0 012.187-1.468 6.898 6.898 0 012.533-.484c2.014 0 3.56.627 4.627 1.882 1.08 1.256 1.613 3.176 1.613 5.749v.447c0 .184 0 .349-.026.5h-10.254c.12 1.557.574 2.737 1.36 3.542.787.808 2.014 1.21 3.68 1.21.947 0 1.734-.076 2.387-.242.64-.164 1.12-.324 1.44-.473l.387 2.243c-.334.173-.894.353-1.72.546-.814.194-1.734.294-2.774.294-1.306 0-2.44-.199-3.386-.59-.947-.396-1.734-.94-2.347-1.629a6.658 6.658 0 01-1.373-2.464c-.294-.95-.44-1.99-.44-3.124m10.28-1.47c.013-1.206-.28-2.2-.907-2.98-.627-.778-1.48-1.169-2.573-1.169-.627 0-1.16.122-1.64.363-.467.235-.867.55-1.187.93-.333.387-.587.83-.76 1.327a6.176 6.176 0 00-.36 1.53h7.427M1533.325 116.579c-1.2 0-2.267-.195-3.187-.58a6.36 6.36 0 01-2.293-1.615c-.627-.685-1.093-1.51-1.4-2.46-.307-.95-.453-2-.453-3.152 0-1.153.16-2.213.493-3.172a7.498 7.498 0 011.427-2.488 6.423 6.423 0 012.266-1.643c.894-.39 1.88-.588 2.974-.588.68 0 1.346.056 2.026.168a9.241 9.241 0 011.92.546l-.6 2.278a6.895 6.895 0 00-1.4-.461 8.065 8.065 0 00-1.68-.168c-1.506 0-2.653.47-3.44 1.41-.8.938-1.2 2.313-1.2 4.118 0 .805.094 1.547.267 2.216.187.672.48 1.247.867 1.73.4.475.906.849 1.52 1.107.613.263 1.36.391 2.24.391.72 0 1.36-.065 1.933-.204.573-.132 1.027-.277 1.347-.432l.386 2.25c-.16.095-.386.182-.666.273-.294.085-.614.158-.987.229-.36.067-.747.123-1.16.173-.413.048-.813.074-1.2.074M1550.005 103.587c-.4.442-.933 1.064-1.6 1.874-.653.803-1.373 1.696-2.133 2.675-.76.983-1.507 2.01-2.28 3.081a57.937 57.937 0 00-2 3.084h8.24v2.25h-11.427v-1.79c.453-.849 1.027-1.773 1.693-2.79a73.492 73.492 0 012.12-3.04c.734-1.01 1.467-1.96 2.16-2.855.707-.89 1.307-1.648 1.827-2.259h-7.4v-2.242h10.8v2.012M1553.485 102c.613-.155 1.44-.313 2.453-.488 1.014-.17 2.187-.259 3.52-.259 1.187 0 2.174.171 2.96.503.787.335 1.414.81 1.894 1.41.466.607.8 1.333.986 2.18.2.843.294 1.769.294 2.79v8.408h-2.68v-7.833c0-.916-.067-1.704-.187-2.358-.133-.654-.333-1.182-.613-1.585a2.49 2.49 0 00-1.16-.88c-.48-.179-1.08-.273-1.787-.273a16.725 16.725 0 00-1.773.104c-.28.026-.52.061-.747.098-.227.038-.373.066-.48.084v12.643h-2.68V102M1567.605 119.339c.213.1.493.188.813.277.347.085.68.133 1 .133 1.054 0 1.88-.242 2.48-.706.6-.471 1.134-1.238 1.614-2.291a82.536 82.536 0 01-3.387-7.336 63.3 63.3 0 01-2.6-7.841h2.88c.2.858.453 1.79.76 2.788.293 1.004.627 2.028.987 3.081.373 1.055.76 2.113 1.186 3.167a53.466 53.466 0 001.32 3.053 73.63 73.63 0 001.907-5.988c.533-1.977 1.04-4.015 1.52-6.101h2.773a118.771 118.771 0 01-2.306 8.129 83.286 83.286 0 01-2.734 7.307c-.386.86-.786 1.608-1.2 2.23-.413.626-.866 1.136-1.373 1.542a4.851 4.851 0 01-1.68.889c-.627.193-1.333.292-2.12.292a7.283 7.283 0 01-1.947-.319 4.076 4.076 0 01-.386-.141l.493-2.165M1276.445 76.284c-2.066 0-3.84-.297-5.32-.895-1.493-.597-2.706-1.434-3.693-2.513-.973-1.072-1.693-2.343-2.16-3.795-.467-1.456-.693-3.054-.693-4.8V45.38h5.546v18.379c0 1.364.147 2.534.454 3.508.306.981.746 1.772 1.306 2.382a5.32 5.32 0 002.014 1.355c.773.287 1.64.439 2.6.439.96 0 1.826-.152 2.613-.439a5.17 5.17 0 002.027-1.355c.573-.61 1.013-1.401 1.32-2.382.293-.974.453-2.144.453-3.508V45.38h5.547v18.901c0 1.746-.254 3.344-.72 4.8-.48 1.452-1.214 2.723-2.187 3.795-.973 1.079-2.227 1.916-3.733 2.513-1.52.598-3.307.895-5.374.895M1294.952 54.155c1.027-.291 2.347-.57 3.973-.828 1.627-.263 3.44-.395 5.414-.395 1.866 0 3.413.253 4.666.767 1.254.504 2.254 1.218 3 2.136.734.917 1.254 2.024 1.56 3.317.307 1.293.467 2.71.467 4.253v12.831h-5.28V64.233c0-1.218-.08-2.257-.24-3.113-.16-.861-.427-1.559-.787-2.099a3.183 3.183 0 00-1.493-1.18c-.627-.246-1.387-.373-2.28-.373-.68 0-1.373.047-2.107.13-.72.091-1.266.166-1.613.222v18.416h-5.28V54.155M1326.112 46.735c0 .988-.307 1.776-.96 2.358-.64.584-1.387.87-2.267.87-.893 0-1.68-.286-2.306-.87-.64-.582-.974-1.37-.974-2.358 0-1.015.334-1.815.974-2.403.626-.58 1.413-.87 2.306-.87.88 0 1.627.29 2.267.87.653.588.96 1.388.96 2.403m-.56 29.505h-5.28V53.412h5.28V76.24M1339.605 52.404c1.747 0 3.213.221 4.413.66 1.187.437 2.134 1.048 2.854 1.836a6.764 6.764 0 011.52 2.855c.32 1.12.466 2.353.466 3.684v13.837c-.813.175-2.053.387-3.693.635-1.64.249-3.493.373-5.56.373-1.373 0-2.613-.133-3.76-.396-1.133-.259-2.093-.683-2.893-1.265a5.897 5.897 0 01-1.88-2.268c-.453-.932-.68-2.086-.68-3.451 0-1.307.253-2.413.76-3.316a6.386 6.386 0 012.08-2.207c.866-.564 1.88-.973 3.04-1.217a16.945 16.945 0 013.586-.372c.587 0 1.2.037 1.84.112.64.072 1.32.193 2.054.368v-.876c0-.607-.08-1.19-.227-1.741a3.482 3.482 0 00-.76-1.463c-.36-.423-.84-.748-1.44-.984-.6-.23-1.347-.347-2.24-.347-1.227 0-2.347.084-3.373.263-1.014.175-1.84.376-2.48.608l-.653-4.273c.666-.235 1.64-.47 2.92-.702a22.804 22.804 0 014.106-.353m.44 19.692c1.627 0 2.853-.09 3.707-.27v-5.842a9.88 9.88 0 00-1.267-.263c-.56-.09-1.16-.133-1.84-.133-.573 0-1.16.043-1.76.133-.6.084-1.133.243-1.613.479-.48.23-.867.56-1.16.983-.294.42-.44.956-.44 1.59 0 1.252.4 2.118 1.186 2.603.774.475 1.84.72 3.187.72M1365.218 76.236V45.992h19.427v4.668h-13.92v7.465h12.387v4.584h-12.387v8.86h14.973v4.667h-20.48M1408.258 75.065c-1.013.258-2.346.527-3.973.804-1.627.278-3.413.415-5.36.415-1.84 0-3.373-.265-4.613-.787-1.24-.526-2.227-1.252-2.974-2.182-.733-.932-1.266-2.043-1.586-3.342-.32-1.289-.48-2.709-.48-4.252V52.932h5.28v11.96c0 2.441.36 4.193 1.066 5.236.72 1.045 1.96 1.573 3.734 1.573.64 0 1.32-.029 2.026-.09.72-.055 1.254-.127 1.6-.215V52.932h5.28v22.133M1427.725 58.17c-.44-.147-1.04-.302-1.813-.458-.774-.16-1.667-.244-2.68-.244-.587 0-1.2.065-1.854.177-.653.119-1.12.218-1.386.307v18.284h-5.28V54.504c1.026-.377 2.293-.735 3.826-1.07 1.52-.333 3.214-.502 5.08-.502.347 0 .76.024 1.227.065.467.043.92.104 1.4.175.453.07.907.16 1.347.263.44.104.786.193 1.053.284l-.92 4.45M1452.685 64.233c0 1.807-.253 3.454-.787 4.936-.52 1.483-1.266 2.752-2.226 3.796-.947 1.047-2.107 1.864-3.467 2.443-1.347.583-2.84.872-4.467.872-1.626 0-3.12-.29-4.453-.872a9.965 9.965 0 01-3.453-2.443c-.96-1.044-1.707-2.313-2.24-3.796-.547-1.482-.814-3.129-.814-4.936 0-1.798.267-3.44.814-4.906.533-1.468 1.293-2.731 2.266-3.779a10.063 10.063 0 013.467-2.419c1.333-.569 2.813-.85 4.413-.85s3.067.281 4.427.85a9.818 9.818 0 013.467 2.419c.96 1.048 1.72 2.31 2.253 3.779.533 1.466.8 3.108.8 4.906m-5.413 0c0-2.268-.48-4.065-1.454-5.386-.973-1.328-2.346-1.986-4.08-1.986-1.746 0-3.106.658-4.08 1.986-.986 1.321-1.466 3.118-1.466 5.386 0 2.306.48 4.123 1.466 5.458.974 1.341 2.334 2.01 4.08 2.01 1.734 0 3.107-.669 4.08-2.01.974-1.335 1.454-3.152 1.454-5.458M1478.445 64.85c0 1.742-.227 3.346-.68 4.8-.453 1.457-1.093 2.705-1.947 3.749-.84 1.049-1.893 1.862-3.16 2.446-1.266.583-2.706.876-4.306.876-1.067 0-2.054-.132-2.96-.39-.907-.27-1.654-.556-2.227-.88v8.869h-5.28V54.155c1.08-.291 2.4-.57 3.973-.834a30.749 30.749 0 014.974-.389c1.8 0 3.413.277 4.84.828 1.426.555 2.64 1.35 3.653 2.381 1 1.031 1.773 2.286 2.307 3.754.533 1.468.813 3.12.813 4.954m-5.427.086c0-2.358-.52-4.194-1.586-5.5-1.067-1.31-2.76-1.963-5.134-1.963-.493 0-1 .024-1.546.061a8.411 8.411 0 00-1.587.292v13.048c.467.314 1.08.616 1.853.892a7.313 7.313 0 002.467.416c1.92 0 3.32-.654 4.213-1.968.894-1.309 1.32-3.068 1.32-5.278M1482.365 64.412c0-2.01.307-3.768.893-5.284.6-1.51 1.387-2.77 2.387-3.772a9.71 9.71 0 013.4-2.268 10.46 10.46 0 013.933-.768c3.134 0 5.587.979 7.347 2.921 1.76 1.954 2.64 4.867 2.64 8.734 0 .292-.013.621-.027.984 0 .358-.026.69-.053.982h-15.067c.147 1.831.8 3.252 1.947 4.254 1.147 1.001 2.813 1.506 5 1.506 1.28 0 2.453-.113 3.507-.349 1.066-.235 1.906-.484 2.52-.743l.693 4.319a8.652 8.652 0 01-1.2.461c-.507.16-1.093.306-1.747.439-.653.127-1.36.233-2.12.323-.76.089-1.52.133-2.306.133-2.014 0-3.76-.297-5.24-.895-1.48-.597-2.707-1.425-3.667-2.489-.96-1.059-1.667-2.31-2.133-3.753-.48-1.442-.707-3.018-.707-4.735m15.32-2.356c0-.73-.093-1.423-.307-2.076a4.864 4.864 0 00-.893-1.703 4.126 4.126 0 00-1.44-1.133c-.56-.277-1.24-.415-2.027-.415-.813 0-1.52.151-2.133.456a4.992 4.992 0 00-1.56 1.204 5.25 5.25 0 00-.973 1.7c-.24.644-.4 1.298-.48 1.967h9.813M1505.365 84.356c-.373 0-.907-.032-1.587-.108-.693-.076-1.293-.21-1.813-.415l.693-4.318c.64.204 1.414.302 2.32.302 1.214 0 2.08-.353 2.574-1.068.493-.71.746-1.784.746-3.209V53.412h5.28v22.217c0 2.966-.706 5.162-2.12 6.588-1.413 1.426-3.44 2.139-6.093 2.139m8.773-37.621c0 .988-.32 1.776-.96 2.354a3.245 3.245 0 01-2.266.879 3.351 3.351 0 01-2.32-.879c-.64-.578-.947-1.366-.947-2.354 0-1.015.307-1.815.947-2.399.653-.584 1.413-.875 2.32-.875.88 0 1.626.291 2.266.875.64.584.96 1.384.96 2.399M1525.752 71.917c1.4 0 2.413-.164 3.053-.498.64-.34.96-.915.96-1.728 0-.752-.347-1.383-1.027-1.876-.68-.491-1.8-1.031-3.386-1.615a24.51 24.51 0 01-2.627-1.115 9.177 9.177 0 01-2.08-1.369 5.552 5.552 0 01-1.373-1.905c-.334-.739-.507-1.647-.507-2.724 0-2.095.773-3.746 2.32-4.955 1.547-1.204 3.64-1.812 6.28-1.812 1.333 0 2.627.124 3.84.372 1.227.25 2.147.485 2.747.72l-.96 4.277c-.574-.264-1.32-.504-2.227-.72-.893-.217-1.947-.33-3.133-.33-1.08 0-1.947.182-2.627.546-.667.367-1 .927-1 1.68 0 .38.067.716.2 1.007.133.292.347.559.68.805.307.25.733.498 1.267.743.52.25 1.16.504 1.906.761 1.254.468 2.32.928 3.2 1.38.867.451 1.587.959 2.147 1.524a5.226 5.226 0 011.253 1.943c.254.73.387 1.6.387 2.621 0 2.178-.8 3.835-2.413 4.955-1.627 1.119-3.934 1.68-6.92 1.68-2.014 0-3.627-.17-4.854-.504-1.213-.335-2.08-.601-2.573-.804l.92-4.41c.787.32 1.72.627 2.813.914 1.094.296 2.334.437 3.734.437M1544.992 62.319c.68-.702 1.386-1.45 2.146-2.254.76-.801 1.494-1.6 2.227-2.4.72-.798 1.413-1.566 2.067-2.309.653-.744 1.213-1.388 1.68-1.944h6.253c-1.453 1.628-3 3.317-4.613 5.064a242.168 242.168 0 01-4.867 5.108c.88.725 1.787 1.61 2.747 2.64a49.399 49.399 0 012.8 3.293 62.444 62.444 0 012.533 3.496 34.707 34.707 0 011.96 3.227h-6.107a48.201 48.201 0 00-1.813-2.837 41.18 41.18 0 00-2.2-2.884c-.787-.926-1.6-1.811-2.4-2.64a20.254 20.254 0 00-2.413-2.111V76.24h-5.28V46.868l5.28-.876v16.327M1571.098 52.404c1.747 0 3.214.221 4.414.66 1.186.437 2.133 1.048 2.853 1.836a6.764 6.764 0 011.52 2.855c.307 1.12.467 2.353.467 3.684v13.837c-.814.175-2.04.387-3.694.635-1.64.249-3.493.373-5.56.373-1.373 0-2.613-.133-3.76-.396-1.133-.259-2.093-.683-2.893-1.265-.8-.58-1.427-1.342-1.88-2.268-.453-.932-.68-2.086-.68-3.451 0-1.307.253-2.413.773-3.316a6.348 6.348 0 012.067-2.207c.867-.564 1.88-.973 3.04-1.217a17.131 17.131 0 013.587-.372c.586 0 1.2.037 1.84.112.64.072 1.32.193 2.053.368v-.876c0-.607-.08-1.19-.213-1.741a3.666 3.666 0 00-.774-1.463c-.36-.423-.84-.748-1.44-.984-.586-.23-1.333-.347-2.24-.347-1.226 0-2.346.084-3.36.263-1.026.175-1.853.376-2.493.608l-.653-4.273c.666-.235 1.64-.47 2.92-.702a22.804 22.804 0 014.106-.353m.44 19.692c1.627 0 2.867-.09 3.707-.27v-5.842a9.88 9.88 0 00-1.267-.263c-.546-.09-1.16-.133-1.84-.133-.573 0-1.16.043-1.76.133-.6.084-1.133.243-1.613.479-.48.23-.867.56-1.16.983-.293.42-.427.956-.427 1.59 0 1.252.387 2.118 1.174 2.603.786.475 1.84.72 3.186.72" fill="#231f20"/><path d="M80.65 0L0 25.205v120.952l80.65 15.123V0" fill="#254aa5"/><path d="M.01 117.09V85.685c4.062 1.107 8.582 1.623 11.557-.17 6.514-3.891 16.381-15.786 16.381-15.786s-5.201 12.832-3.241 17.541c2.077 5.002 14.402 5.27 14.402 5.27s-13.934 8.474-20.42 14.088c-6.667 5.725-11.297 26.78-11.297 26.78S4.157 119.914.01 117.092" fill="#fff200"/><path d="M80.65 61.683c-2.79 1.761-5.527 3.142-7.582 3.544-6.481 1.25-13.419-6.192-13.419-6.192s1.628 10.878-2.45 17.588c-4.291 7.066-18.09 15.916-18.09 15.916s15.254-2.954 18.223 1.778c3.15 5.072 3.572 22.744 3.572 22.744s7.773-21.214 14.827-24.108c1.373-.581 3.088-1.121 4.918-1.642V61.683" fill="#ed1c24"/><path d="M27.948 69.728s7.797-12.21 7.323-16.561c-.463-4.126-8.546-5.612-8.546-5.612s10.584-2.598 15.2-6.747c4.454-4.013 8.344-12.333 8.344-12.333s.988 6.885 4.95 7.87c4.084 1.031 14.997-3.376 14.997-3.376S61.6 41.123 58.22 45.568c-3.537 4.639 1.43 13.467 1.43 13.467s-9.147-3.186-14.26-2.227c-5.04.956-17.442 12.92-17.442 12.92" fill="#fff"/><path d="M120.95 60.479V30.23h19.117v4.67h-13.618v7.727h12.092v4.667H126.45v13.184h-5.498M162.239 59.304c-1.015.257-2.34.525-3.97.804-1.633.276-3.421.413-5.366.413-1.835 0-3.374-.262-4.611-.785-1.233-.524-2.221-1.252-2.965-2.18-.744-.936-1.27-2.044-1.591-3.339-.325-1.294-.484-2.71-.484-4.254V37.169h5.284v11.96c0 2.443.353 4.192 1.067 5.243.712 1.044 1.96 1.565 3.733 1.565.641 0 1.315-.026 2.027-.088.716-.057 1.249-.128 1.596-.216V37.17h5.28v22.135M168.7 38.395c1.016-.29 2.34-.571 3.968-.828 1.635-.264 3.437-.392 5.416-.392 1.861 0 3.416.249 4.67.762 1.246.508 2.245 1.223 2.993 2.136.736.918 1.26 2.023 1.564 3.323.308 1.287.458 2.71.458 4.248v12.835h-5.281V48.476c0-1.221-.077-2.263-.235-3.119-.165-.861-.424-1.557-.79-2.097a3.141 3.141 0 00-1.48-1.177c-.627-.251-1.392-.376-2.294-.376-.668 0-1.366.05-2.094.136-.728.088-1.268.16-1.616.216v18.42h-5.28V38.395M213.259 59.255c-1.046.326-2.367.612-3.946.876-1.59.264-3.253.39-4.996.39-1.806 0-3.421-.272-4.846-.828-1.428-.556-2.647-1.346-3.648-2.381-1.003-1.03-1.772-2.283-2.314-3.75-.533-1.471-.81-3.123-.81-4.954 0-1.801.228-3.439.68-4.912.453-1.468 1.113-2.724 1.988-3.773a8.78 8.78 0 013.189-2.424c1.247-.564 2.687-.851 4.316-.851 1.108 0 2.08.132 2.924.39.843.265 1.575.555 2.187.875v-6.808l5.276-.874zm-15.143-10.779c0 2.33.556 4.155 1.663 5.479 1.104 1.321 2.63 1.982 4.576 1.982.845 0 1.566-.037 2.164-.108.597-.069 1.085-.154 1.464-.238V42.492c-.471-.316-1.088-.617-1.86-.89a7.196 7.196 0 00-2.467-.414c-1.917 0-3.324.655-4.21 1.963-.886 1.306-1.33 3.084-1.33 5.325M238.443 59.304c-1.016.257-2.34.525-3.971.804-1.633.276-3.421.413-5.367.413-1.834 0-3.373-.262-4.606-.785-1.238-.524-2.226-1.252-2.968-2.18-.742-.936-1.271-2.044-1.592-3.339-.32-1.294-.48-2.71-.48-4.254V37.169h5.28v11.96c0 2.443.353 4.192 1.066 5.243.718 1.044 1.962 1.565 3.734 1.565.64 0 1.314-.026 2.028-.088.718-.057 1.248-.128 1.594-.216V37.17h5.282v22.135M250.621 56.161c1.398 0 2.415-.172 3.056-.505.64-.333.958-.904.958-1.727 0-.752-.342-1.378-1.026-1.877-.685-.49-1.81-1.03-3.382-1.613-.958-.348-1.84-.72-2.635-1.107a9.09 9.09 0 01-2.077-1.377 5.588 5.588 0 01-1.371-1.9c-.34-.74-.503-1.648-.503-2.726 0-2.098.766-3.75 2.314-4.954 1.54-1.21 3.632-1.812 6.28-1.812 1.34 0 2.617.122 3.84.372 1.225.244 2.14.484 2.752.716l-.964 4.28c-.58-.263-1.32-.503-2.22-.724-.907-.216-1.951-.324-3.147-.324-1.075 0-1.947.178-2.615.545-.67.367-1.002.928-1.002 1.683 0 .373.06.708.193 1.004.133.292.355.554.677.805.32.25.743.493 1.268.737.52.255 1.162.51 1.916.768a29.43 29.43 0 013.186 1.374c.877.452 1.596.961 2.162 1.533.57.561.979 1.21 1.244 1.935.26.729.396 1.605.396 2.62 0 2.184-.81 3.834-2.422 4.954-1.616 1.124-3.924 1.68-6.92 1.68-2.008 0-3.623-.164-4.848-.5-1.224-.338-2.08-.601-2.571-.809l.915-4.408c.785.32 1.725.627 2.813.917 1.093.292 2.336.44 3.733.44M280.563 41.363a66.34 66.34 0 00-2.294 2.572 142.943 142.943 0 00-3.03 3.689 151.085 151.085 0 00-3.251 4.236 88.092 88.092 0 00-2.95 4.21h11.79v4.409h-18.159v-3.274c.635-1.164 1.439-2.428 2.399-3.798a207.82 207.82 0 012.968-4.122c1.015-1.384 2.027-2.7 3.03-3.953a193.51 193.51 0 012.683-3.268h-10.518v-4.41h17.332v3.709M283.444 48.65c0-2.009.3-3.769.897-5.278.592-1.515 1.388-2.772 2.375-3.779a9.847 9.847 0 013.407-2.268 10.42 10.42 0 013.926-.762c3.146 0 5.592.976 7.356 2.921 1.76 1.948 2.635 4.856 2.635 8.733 0 .287-.004.616-.019.979-.013.361-.033.692-.068.984h-15.056c.146 1.833.79 3.25 1.944 4.253 1.144 1.007 2.818 1.504 5 1.504 1.275 0 2.447-.112 3.514-.346 1.057-.235 1.896-.48 2.505-.74l.704 4.316a8.8 8.8 0 01-1.205.461c-.508.16-1.09.304-1.746.437-.654.127-1.357.24-2.116.324-.754.09-1.525.132-2.312.132-2.01 0-3.752-.296-5.237-.893-1.484-.593-2.707-1.427-3.667-2.49-.962-1.058-1.674-2.31-2.138-3.75-.468-1.445-.7-3.025-.7-4.737m15.322-2.359c0-.724-.105-1.419-.308-2.07a5.007 5.007 0 00-.896-1.707 4.14 4.14 0 00-1.442-1.13c-.562-.277-1.236-.413-2.027-.413-.815 0-1.527.15-2.139.456a4.72 4.72 0 00-1.548 1.2 5.455 5.455 0 00-.981 1.697 9.071 9.071 0 00-.481 1.967h9.822M120.95 100.801V70.552h19.42v4.668h-13.92v7.464h12.394v4.585h-12.395v8.86h14.974v4.672H120.95M163.985 99.621c-1.017.259-2.341.53-3.97.806-1.634.277-3.422.41-5.371.41-1.83 0-3.37-.257-4.607-.785-1.233-.516-2.221-1.245-2.964-2.179-.746-.93-1.274-2.045-1.593-3.334-.324-1.298-.481-2.72-.481-4.259V77.493h5.278v11.955c0 2.443.358 4.19 1.07 5.241.713 1.05 1.958 1.568 3.734 1.568.642 0 1.315-.03 2.028-.086.715-.062 1.244-.131 1.595-.216V77.493h5.281v22.128M183.45 82.73c-.433-.147-1.04-.297-1.811-.457-.771-.161-1.668-.24-2.684-.24-.584 0-1.2.056-1.854.17-.656.122-1.113.221-1.378.31V100.8h-5.282V79.064c1.023-.376 2.292-.739 3.823-1.072 1.527-.33 3.223-.499 5.081-.499.354 0 .763.018 1.224.064.467.043.93.104 1.396.175.47.07.916.16 1.356.26.434.103.786.197 1.044.287l-.916 4.45M208.415 88.799c0 1.805-.262 3.445-.786 4.925-.52 1.492-1.265 2.753-2.225 3.801a10.023 10.023 0 01-3.47 2.443c-1.353.584-2.846.875-4.47.875-1.632 0-3.117-.291-4.457-.875a10.062 10.062 0 01-3.444-2.443c-.963-1.048-1.711-2.309-2.25-3.801-.541-1.48-.805-3.12-.805-4.925 0-1.807.264-3.444.805-4.912.539-1.468 1.296-2.73 2.267-3.779a10.111 10.111 0 013.476-2.424c1.333-.563 2.804-.845 4.408-.845 1.596 0 3.072.282 4.428.845 1.352.572 2.51 1.376 3.47 2.424.957 1.05 1.71 2.31 2.249 3.779.533 1.468.804 3.105.804 4.912m-5.411 0c0-2.272-.487-4.071-1.465-5.392-.972-1.327-2.332-1.986-4.075-1.986-1.75 0-3.108.659-4.085 1.986-.975 1.321-1.46 3.12-1.46 5.392 0 2.296.485 4.112 1.46 5.454.977 1.336 2.334 2.008 4.085 2.008 1.743 0 3.103-.672 4.075-2.008.978-1.342 1.465-3.158 1.465-5.454M234.167 89.407c0 1.749-.227 3.348-.676 4.802-.452 1.454-1.1 2.706-1.942 3.756a8.688 8.688 0 01-3.166 2.443c-1.26.58-2.698.87-4.302.87a10.66 10.66 0 01-2.962-.394c-.906-.256-1.647-.555-2.226-.87v8.86h-5.286V78.717c1.08-.292 2.4-.57 3.976-.828 1.569-.27 3.228-.395 4.976-.395 1.802 0 3.416.271 4.844.827 1.425.556 2.64 1.347 3.646 2.381 1.002 1.035 1.774 2.283 2.312 3.75.535 1.474.806 3.126.806 4.956m-5.412.088c0-2.358-.53-4.188-1.595-5.502-1.059-1.309-2.768-1.965-5.127-1.965-.496 0-1.012.024-1.55.07a8.423 8.423 0 00-1.59.282v13.048c.462.325 1.08.62 1.85.893a7.11 7.11 0 002.472.416c1.917 0 3.324-.656 4.21-1.957.887-1.313 1.33-3.075 1.33-5.285M238.097 88.972c0-2.012.299-3.767.896-5.283.592-1.51 1.388-2.772 2.376-3.778a9.891 9.891 0 013.407-2.268 10.525 10.525 0 013.927-.763c3.145 0 5.59.975 7.356 2.928 1.758 1.948 2.634 4.853 2.634 8.728 0 .29-.005.616-.018.979-.015.365-.034.696-.07.981H243.55c.147 1.836.79 3.252 1.944 4.255 1.146 1.008 2.819 1.51 5.002 1.51 1.276 0 2.445-.118 3.512-.352 1.058-.23 1.896-.476 2.505-.741l.704 4.32a8.522 8.522 0 01-1.205.457c-.506.164-1.09.311-1.746.436-.653.134-1.357.247-2.114.33-.755.088-1.527.132-2.312.132-2.01 0-3.754-.302-5.236-.898-1.486-.592-2.71-1.425-3.668-2.484-.963-1.058-1.676-2.316-2.14-3.756-.468-1.438-.698-3.021-.698-4.733m15.322-2.357c0-.73-.107-1.42-.308-2.074a4.939 4.939 0 00-.896-1.704 4.21 4.21 0 00-1.443-1.133c-.561-.273-1.241-.413-2.028-.413-.813 0-1.527.154-2.139.454a4.817 4.817 0 00-1.546 1.206 5.432 5.432 0 00-.982 1.698 8.86 8.86 0 00-.482 1.966h9.824M261.095 108.917c-.382 0-.906-.037-1.595-.112-.684-.072-1.287-.208-1.812-.416l.7-4.318c.639.206 1.41.305 2.312.305 1.224 0 2.083-.353 2.579-1.067.496-.716.74-1.782.74-3.209V77.973h5.28v22.211c0 2.97-.702 5.168-2.114 6.59-1.41 1.429-3.441 2.143-6.09 2.143m8.773-37.622c0 .984-.323 1.774-.957 2.354a3.267 3.267 0 01-2.271.875c-.905 0-1.675-.292-2.312-.875-.64-.58-.963-1.37-.963-2.354 0-1.026.323-1.824.963-2.399.637-.583 1.407-.875 2.312-.875.873 0 1.628.292 2.27.875.635.575.958 1.373.958 2.399M281.48 96.477c1.397 0 2.413-.169 3.056-.504.639-.329.957-.902.957-1.72 0-.76-.341-1.384-1.026-1.878-.684-.495-1.811-1.036-3.382-1.614a27.1 27.1 0 01-2.64-1.11c-.8-.4-1.49-.852-2.077-1.38A5.64 5.64 0 01275 86.375c-.338-.743-.508-1.651-.508-2.727 0-2.095.77-3.752 2.315-4.956 1.544-1.208 3.637-1.812 6.285-1.812 1.342 0 2.616.121 3.84.373 1.226.244 2.142.488 2.752.72l-.964 4.276c-.578-.258-1.32-.504-2.221-.72-.905-.221-1.95-.324-3.145-.324-1.075 0-1.948.179-2.616.54-.67.364-1.007.924-1.007 1.684 0 .378.065.711.197 1.003.135.292.356.56.678.805.32.248.744.494 1.268.744.52.248 1.162.503 1.917.767 1.25.465 2.313.92 3.185 1.368.879.456 1.596.96 2.158 1.535.574.564.984 1.21 1.249 1.938.259.723.39 1.606.39 2.62 0 2.183-.805 3.836-2.418 4.95-1.62 1.124-3.921 1.684-6.919 1.684-2.01 0-3.622-.168-4.85-.504-1.222-.334-2.078-.6-2.57-.808l.915-4.408c.785.322 1.725.625 2.815.921 1.093.287 2.336.433 3.733.433M300.725 86.875c.67-.702 1.383-1.446 2.139-2.244a157.059 157.059 0 004.299-4.72c.656-.739 1.213-1.388 1.68-1.938h6.24a331.015 331.015 0 01-4.602 5.063 249.169 249.169 0 01-4.864 5.104c.87.73 1.788 1.608 2.746 2.639a48.3 48.3 0 012.798 3.3 70.985 70.985 0 012.53 3.49c.785 1.162 1.442 2.239 1.962 3.23h-6.11a44.676 44.676 0 00-1.812-2.84 36.79 36.79 0 00-2.202-2.879c-.79-.93-1.59-1.807-2.4-2.64a20.919 20.919 0 00-2.404-2.117v10.476h-5.281V71.423l5.281-.871v16.323M325.124 71.295c0 .99-.321 1.774-.96 2.354a3.27 3.27 0 01-2.268.875c-.905 0-1.677-.292-2.312-.875-.643-.58-.965-1.364-.965-2.354 0-1.019.322-1.82.965-2.399.635-.583 1.407-.875 2.312-.875.87 0 1.623.292 2.268.875.639.579.96 1.38.96 2.399m-.57 29.506h-5.278V77.973h5.279v22.828M329.75 88.972c0-2.012.3-3.767.898-5.283.592-1.51 1.388-2.772 2.376-3.778a9.873 9.873 0 013.405-2.268 10.535 10.535 0 013.927-.763c3.145 0 5.592.975 7.356 2.928 1.757 1.948 2.636 4.853 2.636 8.728 0 .29-.005.616-.019.979-.014.365-.033.696-.07.981h-15.055c.147 1.836.79 3.252 1.943 4.255 1.152 1.008 2.818 1.51 5.002 1.51 1.275 0 2.447-.118 3.512-.352 1.059-.23 1.896-.476 2.503-.741l.704 4.32c-.292.147-.692.297-1.205.457-.506.164-1.086.311-1.743.436-.655.134-1.357.247-2.115.33a20 20 0 01-2.312.132c-2.01 0-3.753-.302-5.237-.898-1.485-.592-2.708-1.425-3.668-2.484-.961-1.058-1.675-2.316-2.139-3.756-.468-1.438-.698-3.021-.698-4.733m15.322-2.357c0-.73-.105-1.42-.308-2.074a4.941 4.941 0 00-.897-1.704 4.192 4.192 0 00-1.441-1.133c-.563-.273-1.238-.413-2.028-.413-.815 0-1.527.154-2.14.454a4.807 4.807 0 00-1.547 1.206 5.403 5.403 0 00-.98 1.698 8.787 8.787 0 00-.483 1.966h9.824M131.901 127.605a133.497 133.497 0 01-2.446 7.148 471.448 471.448 0 01-2.476 6.393h-2.8a98.672 98.672 0 01-2.69-9.302 179.59 179.59 0 01-2.176-10.661h2.939c.27 1.502.548 2.998.832 4.5.29 1.496.59 2.949.897 4.358.303 1.414.61 2.76.919 4.048.31 1.285.63 2.474.95 3.573.77-2.016 1.587-4.237 2.447-6.645.868-2.41 1.678-4.9 2.423-7.473h2.419a118.723 118.723 0 002.449 7.473c.881 2.408 1.71 4.63 2.475 6.645.31-1.08.62-2.26.926-3.545a187.412 187.412 0 001.782-8.422c.289-1.51.565-3.01.84-4.512h2.846a189.921 189.921 0 01-2.202 10.66 102.458 102.458 0 01-2.663 9.303h-2.796a204.145 204.145 0 01-2.476-6.393 156.788 156.788 0 01-2.419-7.148M148.75 123.46c-.482 0-.887-.159-1.223-.475-.34-.315-.502-.742-.502-1.284 0-.532.163-.965.502-1.28a1.72 1.72 0 011.224-.47c.48 0 .89.156 1.222.47.339.315.507.748.507 1.28 0 .542-.168.97-.507 1.284a1.71 1.71 0 01-1.222.475m1.352 17.686h-2.676v-14.98h2.676v14.98M153.733 133.341c0-1.325.194-2.48.579-3.47.381-.99.89-1.81 1.527-2.467a6.188 6.188 0 012.188-1.468 6.941 6.941 0 012.533-.485c2.013 0 3.56.626 4.635 1.88 1.078 1.257 1.614 3.178 1.614 5.751v.447c0 .184-.01.348-.03.498h-10.251c.115 1.557.563 2.738 1.352 3.545.787.81 2.015 1.208 3.687 1.208.94 0 1.734-.075 2.376-.241.644-.163 1.132-.323 1.453-.474l.377 2.251c-.326.168-.896.354-1.714.54-.815.192-1.74.29-2.782.29-1.305 0-2.432-.198-3.382-.588-.948-.395-1.735-.94-2.35-1.627a6.669 6.669 0 01-1.365-2.466c-.299-.95-.447-1.989-.447-3.124m10.28-1.467c.022-1.211-.282-2.202-.905-2.983-.627-.776-1.483-1.168-2.576-1.168-.616 0-1.157.123-1.63.362-.466.236-.866.551-1.193.938-.33.38-.584.822-.762 1.32a6.351 6.351 0 00-.363 1.53h7.43M180.204 118.912l2.68-.463v21.921c-.62.169-1.403.345-2.368.518-.96.17-2.063.258-3.31.258-1.15 0-2.187-.182-3.113-.55a6.58 6.58 0 01-2.358-1.553c-.658-.671-1.158-1.49-1.515-2.464-.356-.971-.53-2.056-.53-3.266 0-1.151.151-2.206.445-3.165.298-.967.736-1.793 1.314-2.481a5.943 5.943 0 012.115-1.616c.833-.379 1.793-.572 2.867-.572.864 0 1.622.114 2.288.342.666.23 1.157.453 1.485.666zm0 10.076c-.328-.263-.8-.526-1.412-.776a5.36 5.36 0 00-2.013-.37c-.772 0-1.431.135-1.976.418-.548.277-.998.66-1.34 1.148-.348.49-.598 1.073-.752 1.745a9.983 9.983 0 00-.231 2.16c0 1.743.433 3.09 1.301 4.045.863.953 2.014 1.426 3.454 1.426.734 0 1.34-.032 1.832-.097a9.324 9.324 0 001.137-.22v-9.479M197.283 128.184c-.4.444-.934 1.064-1.6 1.872-.658.806-1.374 1.7-2.128 2.679a90.1 90.1 0 00-2.28 3.081 50.488 50.488 0 00-2 3.08h8.238v2.25h-11.437v-1.782a39.678 39.678 0 011.7-2.795 74.619 74.619 0 012.12-3.04 116.62 116.62 0 012.16-2.855c.703-.89 1.31-1.647 1.83-2.26h-7.406v-2.245h10.803v2.015M205.607 125.508c1.074 0 1.985.142 2.72.413.737.278 1.336.674 1.789 1.186.447.5.772 1.105.965 1.813.19.705.287 1.47.287 2.319v9.357c-.23.039-.548.095-.963.161-.414.066-.881.131-1.397.187-.52.056-1.084.108-1.687.16-.606.047-1.205.07-1.802.07a9.774 9.774 0 01-2.331-.258 5.297 5.297 0 01-1.845-.819 3.792 3.792 0 01-1.211-1.486c-.287-.618-.433-1.351-.433-2.216 0-.828.174-1.54.506-2.132a4.046 4.046 0 011.374-1.444c.573-.362 1.242-.63 2.013-.803.768-.172 1.572-.26 2.419-.26.27 0 .542.013.833.041.29.03.564.072.825.119.255.047.48.09.674.132.192.037.329.065.404.085v-.753c0-.444-.047-.876-.143-1.308a3.08 3.08 0 00-.516-1.152c-.256-.34-.593-.603-1.028-.805-.432-.203-.99-.307-1.685-.307-.882 0-1.658.066-2.316.188-.666.127-1.16.259-1.48.39l-.323-2.22c.347-.15.924-.3 1.73-.447.809-.14 1.682-.211 2.62-.211m.231 13.423c.638 0 1.195-.015 1.682-.043a7.5 7.5 0 001.228-.159v-4.466c-.194-.099-.506-.178-.934-.243a9.866 9.866 0 00-1.572-.104c-.404 0-.833.027-1.28.083-.453.063-.868.18-1.244.365a2.695 2.695 0 00-.934.745c-.252.318-.371.74-.371 1.253 0 .965.303 1.627.919 2.005.612.376 1.452.564 2.506.564M222.341 141.146v-19.958h12.184v2.387h-9.388v5.932h8.348v2.337h-8.348v6.908h10.107v2.394H222.34M247.657 118.912l2.68-.463v21.921c-.612.169-1.402.345-2.362.518-.958.17-2.066.258-3.315.258-1.15 0-2.188-.182-3.108-.55a6.58 6.58 0 01-2.359-1.553c-.656-.671-1.162-1.49-1.513-2.464-.357-.971-.536-2.056-.536-3.266 0-1.151.152-2.206.45-3.165.294-.967.731-1.793 1.31-2.481a5.978 5.978 0 012.115-1.616c.833-.379 1.792-.572 2.865-.572.863 0 1.63.114 2.29.342.665.23 1.162.453 1.483.666zm0 10.076c-.321-.263-.796-.526-1.412-.776a5.34 5.34 0 00-2.013-.37c-.77 0-1.425.135-1.975.418a3.65 3.65 0 00-1.34 1.148c-.348.49-.593 1.073-.748 1.745a9.739 9.739 0 00-.23 2.16c0 1.743.432 3.09 1.296 4.045.864.953 2.013 1.426 3.454 1.426.734 0 1.346-.032 1.832-.097.49-.072.867-.142 1.136-.22v-9.479M266.728 140.393c-.612.157-1.427.322-2.433.495-1.008.175-2.18.258-3.5.258-1.156 0-2.123-.169-2.908-.502-.791-.34-1.422-.81-1.903-1.427-.483-.616-.824-1.34-1.036-2.174-.215-.838-.32-1.763-.32-2.78v-8.412h2.68v7.834c0 1.826.284 3.134.863 3.919.576.78 1.545 1.176 2.91 1.176.29 0 .588-.004.896-.028.304-.019.59-.043.862-.065.27-.029.509-.06.732-.094.222-.025.38-.057.476-.1v-12.642h2.68v14.542M276.605 132.91c.579.44 1.19.991 1.83 1.64.642.655 1.278 1.36 1.898 2.115a41.928 41.928 0 011.775 2.303 26.04 26.04 0 011.41 2.178h-3.14c-.4-.672-.867-1.36-1.397-2.06a30.554 30.554 0 00-1.653-2.012 23.738 23.738 0 00-1.757-1.774 16.476 16.476 0 00-1.702-1.357v7.203h-2.68v-21.891l2.68-.456v13.647l1.527-1.529a72.186 72.186 0 001.641-1.693c.538-.578 1.048-1.133 1.528-1.661.478-.526.89-.991 1.24-1.398h3.136c-.438.486-.92 1.014-1.436 1.586-.52.574-1.06 1.158-1.613 1.746-.56.583-1.117 1.17-1.687 1.756-.57.587-1.098 1.138-1.6 1.656M290.92 125.508c1.075 0 1.985.142 2.721.413.738.278 1.335.674 1.79 1.186.446.5.772 1.105.96 1.813.194.705.29 1.47.29 2.319v9.357c-.23.039-.552.095-.961.161-.415.066-.883.131-1.397.187-.52.056-1.086.108-1.687.16-.608.047-1.21.07-1.803.07a9.758 9.758 0 01-2.33-.258 5.278 5.278 0 01-1.848-.819 3.775 3.775 0 01-1.208-1.486c-.288-.618-.434-1.351-.434-2.216 0-.828.175-1.54.506-2.132a4.024 4.024 0 011.369-1.444c.579-.362 1.247-.63 2.019-.803.768-.172 1.57-.26 2.414-.26.275 0 .548.013.836.041.29.03.566.072.82.119.26.047.486.09.679.132.188.037.327.065.404.085v-.753a5.9 5.9 0 00-.143-1.308 3.005 3.005 0 00-.52-1.152c-.252-.34-.588-.603-1.022-.805-.434-.203-.991-.307-1.686-.307-.881 0-1.657.066-2.317.188-.665.127-1.157.259-1.484.39l-.317-2.22c.346-.15.924-.3 1.729-.447a15.36 15.36 0 012.62-.211m.23 13.423c.64 0 1.195-.015 1.683-.043.49-.028.902-.084 1.227-.159v-4.466c-.192-.099-.505-.178-.933-.243a9.851 9.851 0 00-1.576-.104c-.4 0-.828.027-1.275.083-.455.063-.868.18-1.244.365a2.683 2.683 0 00-.935.745c-.252.318-.376.74-.376 1.253 0 .965.308 1.627.924 2.005.612.376 1.452.564 2.506.564M307.483 141.175c-1.21 0-2.276-.194-3.186-.579a6.346 6.346 0 01-2.304-1.613c-.625-.687-1.09-1.506-1.396-2.456-.31-.955-.457-2.004-.457-3.158 0-1.152.163-2.21.501-3.17.336-.955.81-1.788 1.426-2.491a6.432 6.432 0 012.26-1.641c.894-.39 1.888-.588 2.98-.588.676 0 1.346.058 2.02.17.67.113 1.31.295 1.929.546l-.601 2.281a6.79 6.79 0 00-1.4-.465 8.137 8.137 0 00-1.686-.17c-1.498 0-2.646.471-3.44 1.411-.8.936-1.2 2.31-1.2 4.117 0 .805.09 1.548.274 2.215.184.67.472 1.248.868 1.733.39.482.896.846 1.508 1.106.617.264 1.364.39 2.249.39.708 0 1.355-.067 1.93-.202.575-.13 1.029-.278 1.351-.434l.378 2.25a3.026 3.026 0 01-.666.272 9.03 9.03 0 01-.98.23c-.36.067-.754.123-1.164.175-.41.047-.81.07-1.194.07" fill="#231f20"/><path d="M311.773 146.536c-.23 0-.525-.035-.892-.092a4.429 4.429 0 01-.92-.23l.342-2.187a4.838 4.838 0 001.36.202c.914 0 1.574-.283 1.969-.852.395-.565.587-1.393.587-2.493v-14.719h2.68v14.69c0 1.924-.432 3.35-1.31 4.282-.873.926-2.144 1.399-3.816 1.399m3.77-23.076c-.474 0-.883-.153-1.222-.475-.337-.315-.501-.742-.501-1.28 0-.541.164-.969.501-1.284a1.74 1.74 0 011.223-.476c.483 0 .892.162 1.225.476.338.315.507.743.507 1.284 0 .538-.17.965-.507 1.28-.333.322-.742.475-1.225.475M326.204 125.508c1.075 0 1.985.142 2.721.413.739.278 1.335.674 1.788 1.186.447.5.77 1.105.964 1.813.194.705.288 1.47.288 2.319v9.357c-.23.039-.553.095-.962.161-.415.066-.882.131-1.398.187-.52.056-1.084.108-1.686.16-.607.047-1.204.07-1.803.07a9.774 9.774 0 01-2.33-.258 5.28 5.28 0 01-1.845-.819 3.755 3.755 0 01-1.21-1.486c-.288-.618-.435-1.351-.435-2.216 0-.828.175-1.54.505-2.132a4.027 4.027 0 011.375-1.444c.575-.362 1.243-.63 2.013-.803.768-.172 1.572-.26 2.419-.26.27 0 .547.013.833.041.29.03.566.072.826.119.254.047.48.09.673.132.192.037.33.065.404.085v-.753c0-.444-.047-.876-.143-1.308a3.08 3.08 0 00-.516-1.152 2.651 2.651 0 00-1.025-.805c-.435-.203-.993-.307-1.687-.307-.882 0-1.658.066-2.317.188-.665.127-1.159.259-1.48.39l-.323-2.22c.347-.15.926-.3 1.73-.447.809-.14 1.682-.211 2.62-.211m.232 13.423c.637 0 1.194-.015 1.68-.043a7.5 7.5 0 001.229-.159v-4.466c-.193-.099-.505-.178-.933-.243a9.854 9.854 0 00-1.572-.104c-.404 0-.832.027-1.28.083-.454.063-.868.18-1.244.365-.371.181-.686.432-.935.745-.25.318-.37.74-.37 1.253 0 .965.302 1.627.918 2.005.612.376 1.452.564 2.507.564M352.703 132.792c.308.384.698.893 1.166 1.513.47.622.954 1.319 1.454 2.071.497.761.993 1.552 1.485 2.376.49.828.91 1.622 1.252 2.394h-3.055a46.78 46.78 0 00-1.252-2.22c-.45-.749-.908-1.46-1.364-2.146a57.126 57.126 0 00-1.373-1.915 43.19 43.19 0 00-1.224-1.556c-.25.022-.501.032-.761.032h-3.299v7.805h-2.79V121.47c.785-.189 1.66-.315 2.634-.386.97-.065 1.857-.1 2.661-.1 2.802 0 4.943.528 6.41 1.583 1.466 1.058 2.202 2.633 2.202 4.725 0 1.325-.35 2.454-1.048 3.396-.704.945-1.734 1.641-3.098 2.104m-4.235-9.36c-1.19 0-2.101.028-2.736.085v7.52h1.988c.959 0 1.823-.053 2.592-.149.772-.093 1.416-.272 1.943-.544.53-.267.938-.65 1.228-1.135.285-.492.428-1.137.428-1.946 0-.748-.143-1.375-.428-1.872a3.134 3.134 0 00-1.171-1.178 4.946 4.946 0 00-1.724-.606 12.052 12.052 0 00-2.12-.175M373.957 133.31c0 1.187-.174 2.27-.514 3.23-.35.956-.834 1.785-1.456 2.476a6.476 6.476 0 01-2.236 1.599c-.86.373-1.802.56-2.818.56-1.021 0-1.962-.187-2.824-.56a6.459 6.459 0 01-2.234-1.6c-.623-.69-1.108-1.519-1.456-2.475-.342-.96-.515-2.043-.515-3.23 0-1.169.173-2.24.515-3.215.348-.964.833-1.794 1.456-2.49a6.45 6.45 0 012.234-1.593c.862-.377 1.803-.567 2.824-.567 1.016 0 1.958.19 2.818.567.868.376 1.609.907 2.236 1.593.622.696 1.106 1.526 1.456 2.49.34.974.514 2.046.514 3.214m-2.794 0c0-1.69-.376-3.026-1.136-4.02-.758-.982-1.788-1.481-3.094-1.481-1.305 0-2.341.499-3.098 1.481-.76.994-1.136 2.33-1.136 4.02 0 1.692.376 3.035 1.136 4.018.757.992 1.793 1.486 3.098 1.486 1.306 0 2.336-.494 3.094-1.486.76-.983 1.136-2.326 1.136-4.018M386.948 128.184c-.4.444-.933 1.064-1.6 1.872-.659.806-1.37 1.7-2.128 2.679a99.95 99.95 0 00-2.28 3.081 50.488 50.488 0 00-2 3.08h8.239v2.25h-11.434v-1.782a40.021 40.021 0 011.696-2.795 74.578 74.578 0 012.119-3.04c.74-1.006 1.461-1.962 2.161-2.855.703-.89 1.31-1.647 1.83-2.26h-7.406v-2.245h10.803v2.015M402.675 141.146a120.58 120.58 0 01-1.711-4.742 76.059 76.059 0 01-1.659-5.537 85.007 85.007 0 01-1.641 5.537 107.956 107.956 0 01-1.701 4.742h-2.331c-.883-1.98-1.75-4.233-2.593-6.769a118.857 118.857 0 01-2.39-8.212h2.882c.193.91.418 1.887.689 2.942.268 1.053.548 2.112.847 3.165.3 1.059.612 2.077.94 3.055.328.984.632 1.835.92 2.564.328-.903.645-1.858.964-2.867.317-1 .622-2.027.905-3.052.29-1.027.565-2.037.825-3.026.26-.988.484-1.914.674-2.78h2.22a55.9 55.9 0 00.633 2.78c.25.989.52 2 .81 3.026a99.11 99.11 0 00.905 3.052c.317 1.01.636 1.964.962 2.867.29-.73.594-1.58.906-2.564.325-.978.632-1.996.94-3.055.309-1.053.593-2.112.862-3.165.27-1.055.502-2.032.694-2.942h2.766a118.772 118.772 0 01-2.394 8.212c-.843 2.536-1.706 4.788-2.592 6.77h-2.332M425.547 133.31c0 1.187-.175 2.27-.516 3.23-.348.956-.834 1.785-1.462 2.476a6.389 6.389 0 01-2.23 1.599 7.038 7.038 0 01-2.818.56c-1.02 0-1.962-.187-2.822-.56a6.476 6.476 0 01-2.236-1.6c-.623-.69-1.108-1.519-1.455-2.475-.343-.96-.516-2.043-.516-3.23 0-1.169.173-2.24.516-3.215.347-.964.832-1.794 1.455-2.49a6.468 6.468 0 012.236-1.593c.86-.377 1.802-.567 2.822-.567 1.012 0 1.955.19 2.819.567a6.38 6.38 0 012.23 1.593c.627.696 1.113 1.526 1.46 2.49.342.974.517 2.046.517 3.214m-2.796 0c0-1.69-.382-3.026-1.136-4.02-.763-.982-1.788-1.481-3.094-1.481-1.31 0-2.341.499-3.102 1.481-.755.994-1.132 2.33-1.132 4.02 0 1.692.377 3.035 1.132 4.018.76.992 1.792 1.486 3.102 1.486 1.306 0 2.33-.494 3.094-1.486.754-.983 1.136-2.326 1.136-4.018m-.746-12.813l-4.062 3.943-1.352-1.208 3.682-4.438 1.732 1.703M426.727 146.536c-.231 0-.53-.035-.896-.092a4.564 4.564 0 01-.92-.23l.345-2.187a5.109 5.109 0 001.356.201c.919 0 1.58-.282 1.968-.85.396-.566.593-1.394.593-2.494v-14.719h2.68v14.69c0 1.924-.437 3.35-1.31 4.282-.874.926-2.143 1.399-3.816 1.399m3.774-23.076c-.478 0-.888-.153-1.226-.475-.336-.315-.506-.742-.506-1.28 0-.541.17-.969.506-1.284a1.742 1.742 0 011.226-.476c.475 0 .884.162 1.223.476.336.315.505.743.505 1.284 0 .538-.17.965-.505 1.28a1.709 1.709 0 01-1.223.475M783.583 50.656c4.433 0 7.814.808 10.16 2.432 2.348 1.619 3.529 4.103 3.529 7.437 0 4.164-2.053 6.984-6.164 8.46.565.678 1.195 1.5 1.908 2.48.708.975 1.43 2.034 2.168 3.167a69.71 69.71 0 012.125 3.5 49.7 49.7 0 011.822 3.519h-6.243a66.424 66.424 0 00-1.823-3.212 94.097 94.097 0 00-1.97-3.146 79.191 79.191 0 00-1.97-2.877 61.352 61.352 0 00-1.817-2.41c-.41.033-.765.043-1.06.043h-3.54v11.602h-5.584V51.408a30.795 30.795 0 014.344-.603 61.967 61.967 0 014.115-.149m.394 4.823c-1.18 0-2.268.05-3.27.13v9.918h2.433c1.359 0 2.553-.07 3.585-.22 1.035-.14 1.902-.41 2.59-.795.689-.381 1.22-.899 1.577-1.544.353-.655.525-1.483.525-2.484 0-.943-.172-1.74-.525-2.39a3.937 3.937 0 00-1.532-1.55c-.656-.383-1.452-.663-2.37-.823a18.11 18.11 0 00-3.013-.242M819.764 62.253c-.596.616-1.364 1.491-2.327 2.61a154.425 154.425 0 00-6.375 8.043 80.81 80.81 0 00-2.987 4.275h11.949v4.47h-18.415v-3.32c.646-1.18 1.459-2.467 2.434-3.855a240.201 240.201 0 013.01-4.187 127.929 127.929 0 013.08-4.009 180.786 180.786 0 012.723-3.317h-10.672v-4.475h17.58v3.765M822.95 70.176c0-2.032.298-3.821.91-5.355.603-1.538 1.407-2.808 2.404-3.829 1.012-1.017 2.156-1.79 3.461-2.305 1.299-.51 2.63-.772 3.983-.772 3.195 0 5.681.988 7.464 2.968 1.79 1.978 2.677 4.933 2.677 8.85 0 .306-.004.631-.022.999-.015.37-.038.705-.064.997h-15.278c.142 1.863.804 3.302 1.967 4.319 1.164 1.017 2.86 1.528 5.072 1.528 1.301 0 2.487-.117 3.565-.356 1.076-.236 1.928-.49 2.544-.748l.712 4.379a9.242 9.242 0 01-1.217.472c-.52.16-1.113.304-1.767.441-.665.133-1.384.241-2.156.33-.766.085-1.55.127-2.34.127-2.044 0-3.81-.296-5.314-.898-1.508-.612-2.747-1.45-3.724-2.532-.974-1.072-1.696-2.338-2.17-3.811-.477-1.453-.708-3.053-.708-4.804m15.544-2.39a7.05 7.05 0 00-.313-2.1 5.073 5.073 0 00-.9-1.727 4.353 4.353 0 00-1.467-1.151c-.573-.281-1.26-.419-2.056-.419-.836 0-1.552.151-2.178.462a5.036 5.036 0 00-1.572 1.217 5.638 5.638 0 00-.992 1.728 9.969 9.969 0 00-.49 1.99h9.968M848.232 70.092c0-1.708.267-3.313.805-4.804.524-1.487 1.287-2.785 2.27-3.872.997-1.097 2.202-1.95 3.618-2.57 1.42-.622 3.002-.931 4.778-.931 2.184 0 4.256.394 6.2 1.194l-1.148 4.382a12.265 12.265 0 00-2.102-.655 10.957 10.957 0 00-2.506-.268c-2.095 0-3.691.65-4.784 1.967-1.09 1.317-1.634 3.166-1.634 5.557 0 2.31.512 4.13 1.55 5.467 1.03 1.344 2.773 2.017 5.224 2.017.917 0 1.812-.092 2.698-.267a12.651 12.651 0 002.308-.664l.754 4.432c-.594.288-1.49.559-2.68.795-1.195.24-2.428.35-3.702.35-1.98 0-3.7-.3-5.158-.9-1.46-.611-2.67-1.449-3.628-2.531-.96-1.072-1.682-2.356-2.15-3.854-.47-1.486-.713-3.104-.713-4.845M886.623 62.253a72.373 72.373 0 00-2.322 2.61 130.761 130.761 0 00-3.077 3.746 168.462 168.462 0 00-3.301 4.296 86.922 86.922 0 00-2.992 4.276h11.958v4.47h-18.413v-3.32a39.367 39.367 0 012.432-3.855 185.82 185.82 0 013.012-4.187 127.944 127.944 0 013.072-4.009 217.952 217.952 0 012.73-3.317h-10.68v-4.475h17.58v3.765M912.705 70.092c0 1.768-.225 3.396-.69 4.868-.458 1.484-1.107 2.748-1.966 3.813a8.743 8.743 0 01-3.213 2.48c-1.28.592-2.736.883-4.36.883-1.093 0-2.1-.13-3.01-.4-.915-.263-1.669-.559-2.257-.885v8.988h-5.361V59.24c1.09-.292 2.432-.573 4.028-.838a31.108 31.108 0 015.05-.403c1.83 0 3.467.281 4.913.847 1.445.558 2.678 1.364 3.7 2.408 1.028 1.049 1.8 2.325 2.348 3.812.544 1.486.818 3.166.818 5.025m-5.49.084c0-2.385-.536-4.248-1.616-5.57-1.076-1.333-2.815-1.995-5.204-1.995-.502 0-1.026.018-1.57.061a8.302 8.302 0 00-1.616.296v13.239c.474.316 1.103.621 1.88.901.78.281 1.619.423 2.5.423 1.948 0 3.379-.659 4.275-1.995.897-1.323 1.352-3.11 1.352-5.36M939.188 70.045c0 1.834-.264 3.5-.8 5-.53 1.512-1.28 2.796-2.253 3.863a10.298 10.298 0 01-3.518 2.48c-1.378.588-2.892.88-4.542.88s-3.163-.292-4.52-.88a10.288 10.288 0 01-3.498-2.48c-.973-1.067-1.73-2.35-2.276-3.863-.552-1.5-.828-3.166-.828-5 0-1.83.276-3.486.828-4.978.546-1.491 1.31-2.772 2.295-3.831a10.166 10.166 0 013.53-2.456c1.349-.579 2.842-.865 4.469-.865 1.628 0 3.122.286 4.493.865a9.909 9.909 0 013.517 2.456c.974 1.059 1.74 2.34 2.284 3.83.546 1.493.819 3.149.819 4.98m-5.496 0c0-2.307-.487-4.122-1.48-5.465-.992-1.341-2.37-2.017-4.137-2.017-1.774 0-3.158.676-4.146 2.017-.982 1.343-1.481 3.158-1.481 5.464 0 2.334.499 4.178 1.481 5.538.988 1.353 2.372 2.036 4.146 2.036 1.766 0 3.145-.683 4.137-2.036.993-1.36 1.48-3.204 1.48-5.538M950.52 77.792c1.421 0 2.45-.168 3.103-.501.645-.346.977-.928.977-1.755 0-.768-.35-1.397-1.045-1.897-.695-.508-1.84-1.058-3.43-1.643-.974-.35-1.87-.73-2.68-1.128a9.33 9.33 0 01-2.105-1.393 5.8 5.8 0 01-1.392-1.934c-.337-.752-.512-1.669-.512-2.762 0-2.12.781-3.8 2.348-5.024 1.56-1.228 3.69-1.84 6.379-1.84 1.354 0 2.654.122 3.893.376 1.247.254 2.173.498 2.795.734l-.98 4.334c-.592-.264-1.343-.508-2.258-.724-.908-.223-1.97-.34-3.186-.34-1.088 0-1.98.188-2.655.556-.69.366-1.025.94-1.025 1.704 0 .384.068.722.2 1.014.136.303.364.575.69.824.323.255.747.504 1.288.752.524.251 1.18.514 1.944.776a29.41 29.41 0 013.23 1.395c.89.456 1.625.973 2.196 1.552.569.575.997 1.232 1.258 1.97.27.74.4 1.623.4 2.66 0 2.21-.813 3.886-2.458 5.025-1.632 1.133-3.978 1.698-7.015 1.698-2.037 0-3.68-.169-4.92-.502-1.237-.346-2.11-.612-2.615-.82l.936-4.479c.8.33 1.744.64 2.856.93 1.103.306 2.367.442 3.783.442M985.815 70.092c0 1.768-.23 3.396-.688 4.868-.454 1.484-1.114 2.748-1.97 3.813a8.784 8.784 0 01-3.21 2.48c-1.282.592-2.738.883-4.36.883-1.095 0-2.096-.13-3.016-.4-.916-.263-1.668-.559-2.25-.885v8.988h-5.364V59.24c1.099-.292 2.434-.573 4.027-.838 1.6-.263 3.283-.403 5.052-.403 1.83 0 3.472.281 4.919.847 1.44.558 2.673 1.364 3.693 2.408 1.019 1.049 1.797 2.325 2.348 3.812.544 1.486.819 3.166.819 5.025m-5.488.084c0-2.385-.548-4.248-1.62-5.57-1.083-1.333-2.808-1.995-5.203-1.995-.505 0-1.03.018-1.573.061a8.111 8.111 0 00-1.61.296v13.239c.466.316 1.094.621 1.878.901a7.354 7.354 0 002.5.423c1.953 0 3.369-.659 4.274-1.995.907-1.323 1.354-3.11 1.354-5.36M1012.299 70.045c0 1.834-.266 3.5-.8 5-.531 1.512-1.282 2.796-2.256 3.863a10.291 10.291 0 01-3.526 2.48c-1.37.588-2.882.88-4.533.88-1.659 0-3.163-.292-4.519-.88a10.314 10.314 0 01-3.498-2.48c-.974-1.067-1.73-2.35-2.275-3.863-.553-1.5-.828-3.166-.828-5 0-1.83.275-3.486.828-4.978.545-1.491 1.31-2.772 2.303-3.831a10.164 10.164 0 013.508-2.456c1.364-.579 2.857-.865 4.48-.865 1.614 0 3.122.286 4.496.865a9.932 9.932 0 013.517 2.456c.981 1.059 1.733 2.34 2.277 3.83.55 1.493.826 3.149.826 4.98m-5.488 0c0-2.307-.502-4.122-1.488-5.465-.988-1.341-2.372-2.017-4.14-2.017-1.774 0-3.156.676-4.144 2.017-.991 1.343-1.478 3.158-1.478 5.464 0 2.334.487 4.178 1.478 5.538.988 1.353 2.37 2.036 4.145 2.036 1.767 0 3.15-.683 4.139-2.036.986-1.36 1.488-3.204 1.488-5.538M1025.888 82.09c-1.596-.029-2.915-.207-3.961-.527-1.05-.33-1.887-.786-2.507-1.398-.616-.602-1.053-1.354-1.3-2.253-.255-.91-.375-1.936-.375-3.083V52.152l5.354-.885v22.546c0 .644.053 1.195.154 1.638.106.442.283.818.556 1.129.263.31.622.55 1.082.705.456.164 1.04.291 1.746.376l-.75 4.428M1036.959 51.717c0 1.003-.323 1.798-.974 2.392-.65.592-1.421.878-2.304.878-.91 0-1.696-.286-2.341-.878-.648-.594-.973-1.389-.973-2.392 0-1.034.325-1.848.973-2.437.645-.592 1.43-.884 2.341-.884a3.31 3.31 0 012.304.884c.65.59.974 1.403.974 2.437m-.58 29.93h-5.351V58.488h5.352v23.159M1042.935 52.152l5.364-.885v7.221h8.233v4.48h-8.233v9.43c0 1.858.288 3.189.88 3.98.589.8 1.596 1.198 3.013 1.198.976 0 1.839-.103 2.592-.31a16.697 16.697 0 001.79-.578l.893 4.253c-.623.268-1.442.542-2.443.819-1.003.283-2.188.419-3.541.419-1.654 0-3.036-.22-4.136-.659-1.107-.443-1.992-1.087-2.64-1.928-.652-.843-1.102-1.864-1.366-3.059-.276-1.197-.406-2.554-.406-4.093V52.152M1069.412 57.915c1.777 0 3.263.221 4.477.664 1.208.442 2.178 1.058 2.9 1.852.723.801 1.242 1.77 1.55 2.909.309 1.139.464 2.381.464 3.744v14.032c-.823.175-2.072.39-3.74.648-1.671.245-3.55.377-5.651.377-1.381 0-2.65-.136-3.803-.401-1.15-.272-2.133-.695-2.946-1.284a6.066 6.066 0 01-1.9-2.305c-.46-.946-.688-2.112-.688-3.5 0-1.323.26-2.446.772-3.36a6.365 6.365 0 012.109-2.243c.883-.57 1.908-.99 3.075-1.239a17.814 17.814 0 013.656-.376c.584 0 1.205.034 1.854.112a16.98 16.98 0 012.082.376v-.888c0-.621-.071-1.209-.222-1.764a3.583 3.583 0 00-.776-1.488c-.37-.428-.856-.762-1.458-.996-.608-.234-1.364-.358-2.28-.358-1.238 0-2.376.1-3.415.273-1.032.173-1.87.381-2.516.617l-.67-4.338c.675-.235 1.669-.47 2.969-.707a22.894 22.894 0 014.157-.357m.45 19.973c1.651 0 2.905-.096 3.76-.27v-5.937a13.455 13.455 0 00-1.286-.262 12.408 12.408 0 00-1.859-.128c-.582 0-1.181.042-1.792.128a5.81 5.81 0 00-1.642.489c-.478.235-.87.565-1.167.997-.299.428-.443.966-.443 1.619 0 1.265.4 2.14 1.196 2.63.792.489 1.872.734 3.232.734M783.804 91.71c4.456 0 7.867.811 10.247 2.434 2.38 1.623 3.562 4.164 3.562 7.617 0 1.802-.32 3.344-.945 4.63a8.055 8.055 0 01-2.764 3.144c-1.215.813-2.69 1.405-4.428 1.79-1.75.388-3.74.575-5.985.575h-2.795v10.804h-5.572v-30.24a27.861 27.861 0 014.316-.597 67.73 67.73 0 014.364-.156m.395 4.825c-1.412 0-2.578.045-3.503.133v10.456h2.712c2.68 0 4.747-.377 6.197-1.134 1.45-.752 2.174-2.178 2.174-4.274 0-1.001-.198-1.844-.583-2.52a4.105 4.105 0 00-1.59-1.6c-.68-.381-1.485-.654-2.42-.82a18.216 18.216 0 00-2.987-.241M822.592 111.105c0 1.824-.263 3.5-.8 5-.524 1.512-1.275 2.791-2.253 3.856a10.12 10.12 0 01-3.522 2.483c-1.374.593-2.886.881-4.542.881-1.654 0-3.163-.288-4.511-.881a10.1 10.1 0 01-3.497-2.483c-.98-1.065-1.742-2.344-2.29-3.856-.544-1.5-.814-3.176-.814-5 0-1.83.27-3.493.814-4.977.548-1.497 1.32-2.767 2.308-3.835a10.129 10.129 0 013.527-2.457c1.355-.577 2.837-.865 4.463-.865 1.632 0 3.12.288 4.497.865a9.877 9.877 0 013.517 2.457c.974 1.068 1.742 2.338 2.284 3.835.547 1.484.819 3.147.819 4.977m-5.49 0c0-2.3-.493-4.121-1.485-5.466-.988-1.346-2.372-2.015-4.142-2.015-1.766 0-3.148.67-4.136 2.015-.988 1.345-1.483 3.166-1.483 5.466 0 2.334.495 4.179 1.483 5.539.988 1.352 2.37 2.036 4.136 2.036 1.77 0 3.154-.684 4.142-2.036.992-1.36 1.484-3.205 1.484-5.539M836.187 123.145c-1.595-.029-2.914-.208-3.963-.521-1.048-.335-1.885-.792-2.507-1.399-.616-.605-1.05-1.358-1.305-2.261-.247-.901-.376-1.925-.376-3.08V93.263l5.363-.888v22.494c0 .65.057 1.195.153 1.636.107.45.285.819.556 1.131.268.31.625.547 1.087.716.449.159 1.032.283 1.745.37l-.753 4.423M847.077 118.853c1.422 0 2.454-.168 3.103-.501.652-.35.973-.932.973-1.75 0-.773-.346-1.407-1.041-1.913-.692-.497-1.84-1.042-3.43-1.633-.971-.36-1.869-.733-2.678-1.132a8.98 8.98 0 01-2.105-1.392 5.552 5.552 0 01-1.392-1.93c-.34-.757-.511-1.674-.511-2.767 0-2.122.779-3.8 2.345-5.019 1.572-1.228 3.69-1.845 6.37-1.845 1.364 0 2.665.126 3.906.376 1.246.256 2.17.501 2.79.734l-.978 4.338c-.59-.268-1.344-.507-2.25-.724-.924-.227-1.984-.334-3.194-.334-1.09 0-1.978.182-2.658.551-.676.37-1.012.936-1.012 1.703 0 .384.06.724.193 1.016.135.297.356.57.687.818.32.259.753.508 1.277.754.541.253 1.19.512 1.959.781 1.269.47 2.34.935 3.236 1.39.88.457 1.609.975 2.193 1.55a5.45 5.45 0 011.256 1.967c.26.746.395 1.632.395 2.668 0 2.21-.814 3.881-2.456 5.02-1.64 1.133-3.98 1.702-7.02 1.702-2.032 0-3.667-.173-4.91-.507-1.244-.338-2.114-.612-2.617-.82l.93-4.471c.8.322 1.755.632 2.847.929 1.115.296 2.37.441 3.792.441M866.87 108.579c.68-.702 1.403-1.464 2.173-2.278.766-.813 1.526-1.624 2.26-2.436.732-.816 1.44-1.597 2.11-2.349.655-.748 1.224-1.407 1.702-1.972h6.325a355.872 355.872 0 01-4.655 5.145 223.992 223.992 0 01-4.934 5.179 28.384 28.384 0 012.786 2.677 47.968 47.968 0 012.836 3.346 70.157 70.157 0 012.56 3.542 39.294 39.294 0 011.99 3.274h-6.21a41.27 41.27 0 00-1.832-2.875 38.563 38.563 0 00-2.236-2.93c-.8-.94-1.613-1.829-2.437-2.673a20.127 20.127 0 00-2.437-2.15v10.628h-5.364V93.263l5.364-.888v16.204M893.619 98.97c1.774 0 3.258.227 4.472.665 1.216.446 2.172 1.069 2.9 1.862.724.8 1.238 1.762 1.552 2.898.312 1.138.468 2.385.468 3.745v14.041c-.826.17-2.078.391-3.744.638-1.678.25-3.551.38-5.648.38-1.383 0-2.652-.137-3.811-.398-1.145-.272-2.133-.7-2.943-1.293a6.043 6.043 0 01-1.902-2.3c-.46-.941-.68-2.11-.68-3.501 0-1.323.25-2.442.766-3.364a6.365 6.365 0 012.106-2.231c.886-.577 1.908-.988 3.077-1.241a17.019 17.019 0 015.508-.264c.65.066 1.345.198 2.09.377v-.895c0-.621-.077-1.209-.226-1.764a3.749 3.749 0 00-.77-1.486 3.684 3.684 0 00-1.469-.998c-.602-.236-1.365-.349-2.28-.349-1.24 0-2.37.085-3.41.265-1.031.174-1.871.384-2.52.619l-.666-4.341c.679-.235 1.667-.472 2.972-.708a23.558 23.558 0 014.158-.356m.445 19.977c1.652 0 2.899-.095 3.767-.268v-5.933c-.303-.095-.727-.178-1.292-.268a11.72 11.72 0 00-1.863-.136c-.588 0-1.181.045-1.783.136-.612.09-1.157.249-1.65.485-.484.24-.87.573-1.172.996-.291.435-.442.97-.442 1.62 0 1.265.4 2.144 1.206 2.63.784.489 1.869.738 3.229.738" fill="#231f20"/><path d="M734.741 25.2H552.767v62.996H734.74V25.2" fill="#fff"/><path d="M734.741 85.861H552.767v60.668H734.74V85.861" fill="#b7182e"/><path d="M734.175 145.95h-180.84V25.77h180.84zm.566-120.75H552.767v121.33H734.74V25.2" fill="#7b7979"/></svg>