<svg xmlns="http://www.w3.org/2000/svg" viewBox="0 0 334.443 92.213"><path d="M113.598 74.413h-1.367l-2.11-7.257-2.095 7.257h-1.367l-2.706-10.356h1.658l1.805 7.404 2.08-7.404h1.265l2.08 7.404 1.804-7.404h1.659l-2.706 10.356m6.968.089c-1.557 0-2.677-.365-3.666-1.37l1.047-1.031c.756.756 1.586.99 2.647.99 1.354 0 2.14-.583 2.14-1.586 0-.45-.132-.83-.409-1.076-.261-.25-.523-.35-1.134-.437l-1.222-.175c-.844-.117-1.513-.407-1.964-.828-.509-.481-.756-1.136-.756-1.979 0-1.805 1.309-3.04 3.462-3.04 1.368 0 2.328.348 3.215 1.178l-1.004.989c-.64-.612-1.381-.8-2.255-.8-1.222 0-1.891.699-1.891 1.615 0 .378.117.712.393.96.262.232.684.408 1.164.48l1.178.176c.96.145 1.498.377 1.935.769.567.495.844 1.237.844 2.124 0 1.905-1.557 3.041-3.724 3.041m9.76-4.162h-2.357v4.073h-1.57V64.057h3.927c2.022 0 3.318 1.339 3.318 3.141 0 1.804-1.296 3.143-3.318 3.143zm-.087-4.872h-2.27v3.446h2.27c1.091 0 1.833-.624 1.833-1.716 0-1.09-.742-1.73-1.833-1.73m11.391 7.928c-.713.713-1.63 1.106-2.735 1.106-1.106 0-2.007-.393-2.72-1.106-1.018-1.02-1.004-2.167-1.004-4.16 0-1.995-.014-3.142 1.004-4.162.713-.712 1.614-1.104 2.72-1.104 1.105 0 2.022.392 2.736 1.104 1.017 1.02.988 2.167.988 4.162 0 1.993.029 3.14-.988 4.16zm-1.193-7.376c-.364-.392-.93-.64-1.542-.64-.611 0-1.178.248-1.542.64-.509.554-.61 1.136-.61 3.216s.101 2.66.61 3.214c.364.394.931.64 1.542.64.612 0 1.178-.246 1.542-.64.51-.553.611-1.134.611-3.214s-.101-2.662-.61-3.216zm-1.469-2.967h-1.12l1.092-2.356h1.643l-1.615 2.356m5.993 11.36V64.057h1.571v8.947h4.99v1.409h-6.56m14.706 0l-4.785-7.285v7.285h-1.572V64.057h1.44l4.786 7.273v-7.273h1.571v10.356h-1.44m10.227-1.017c-.714.713-1.63 1.106-2.735 1.106s-2.008-.393-2.72-1.106c-1.019-1.02-1.004-2.167-1.004-4.16 0-1.995-.015-3.142 1.004-4.162.712-.712 1.615-1.104 2.72-1.104 1.105 0 2.021.392 2.735 1.104 1.018 1.02.989 2.167.989 4.162 0 1.993.03 3.14-.99 4.16zM168.7 66.02c-.364-.392-.93-.64-1.541-.64-.61 0-1.179.248-1.543.64-.508.554-.61 1.136-.61 3.216s.102 2.66.61 3.214c.364.394.932.64 1.543.64.61 0 1.177-.246 1.541-.64.51-.553.611-1.134.611-3.214s-.101-2.662-.61-3.216m8.016-.552v8.945h-1.572v-8.945h-2.85v-1.411h7.273v1.41h-2.85m10.589 8.946l-.712-2.08h-4.088l-.712 2.08h-1.674l3.796-10.356h1.266l3.797 10.356zm-2.72-8.015l-1.614 4.598h3.184l-1.57-4.598m15.07 8.015l-2.182-4.363h-1.963v4.363h-1.572V64.057h4.016c1.964 0 3.215 1.265 3.215 3.024 0 1.487-.903 2.43-2.067 2.75l2.385 4.582zm-1.817-8.945h-2.328v3.245h2.328c1.047 0 1.76-.597 1.76-1.616 0-1.019-.713-1.63-1.76-1.63m11.708 7.929c-.71.713-1.628 1.106-2.735 1.106-1.104 0-2.008-.393-2.718-1.106-1.018-1.02-1.006-2.167-1.006-4.16 0-1.995-.012-3.142 1.006-4.162.71-.712 1.614-1.104 2.718-1.104 1.107 0 2.024.392 2.735 1.104 1.02 1.02.99 2.167.99 4.162 0 1.993.03 3.14-.99 4.16zm-1.19-7.376c-.365-.392-.933-.64-1.545-.64-.61 0-1.176.248-1.541.64-.508.554-.61 1.136-.61 3.216s.102 2.66.61 3.214c.365.394.93.64 1.541.64.612 0 1.18-.246 1.544-.64.508-.553.611-1.134.611-3.214s-.103-2.662-.61-3.216m8.698 8.393h-4.19V64.057h4.029c1.921 0 3.128 1.09 3.128 2.836 0 1.12-.698 1.921-1.396 2.197.798.32 1.557 1.09 1.557 2.4 0 1.906-1.295 2.923-3.128 2.923zm-.292-8.945h-2.328v2.968h2.328c1.004 0 1.688-.524 1.688-1.484s-.684-1.484-1.688-1.484zm.147 4.378h-2.475v3.158h2.475c1.09 0 1.701-.671 1.701-1.587 0-.917-.61-1.57-1.701-1.57m11.679 3.549c-.711.713-1.627 1.106-2.734 1.106-1.105 0-2.007-.393-2.719-1.106-1.018-1.02-1.005-2.167-1.005-4.16 0-1.995-.013-3.142 1.005-4.162.712-.712 1.614-1.104 2.719-1.104 1.107 0 2.023.392 2.735 1.104 1.018 1.02.99 2.167.99 4.162 0 1.993.028 3.14-.99 4.16zm-1.19-7.376c-.364-.392-.931-.64-1.543-.64-.61 0-1.177.248-1.543.64-.508.554-.609 1.136-.609 3.216s.101 2.66.61 3.214c.365.394.933.64 1.542.64.612 0 1.179-.246 1.543-.64.509-.553.61-1.134.61-3.214s-.101-2.662-.61-3.216m7.853 8.482c-1.074 0-2.006-.393-2.721-1.106-1.017-1.02-1.003-2.167-1.003-4.16 0-1.995-.014-3.142 1.003-4.162.715-.712 1.647-1.104 2.721-1.104 1.906 0 3.331 1.12 3.696 3.186h-1.601c-.247-1.048-.945-1.776-2.095-1.776-.61 0-1.164.233-1.528.625-.508.553-.625 1.15-.625 3.23s.117 2.677.625 3.23c.364.392.918.625 1.528.625 1.15 0 1.863-.726 2.11-1.774h1.586c-.349 2.066-1.818 3.186-3.696 3.186m5.135-.089v-1.35l4.787-7.595h-4.583v-1.411h6.43v1.28l-4.815 7.667h4.816v1.409h-6.635m14.635 0l-.714-2.08h-4.086l-.714 2.08h-1.672l3.798-10.356h1.265l3.796 10.356zm-2.719-8.015l-1.615 4.598h3.184l-1.569-4.598m8.697 8.015v-1.35l4.787-7.595h-4.583v-1.411h6.431v1.28l-4.817 7.667h4.817v1.409h-6.635m17.136 0h-1.368l-2.109-7.257-2.093 7.257h-1.368l-2.706-10.356h1.659l1.803 7.404 2.081-7.404h1.265l2.08 7.404 1.804-7.404h1.658l-2.706 10.356m4.219 0h1.57V64.056h-1.57zm9.514-2.08h-4.087l-.714 2.08h-1.673l3.799-10.356h1.264l3.797 10.356c-.51.09-.801.583-.713.89.086.32.406.566 1.12.114l.524 1.077c-.611.378-.888.436-1.382.436-1.353-.014-2.138-1.28-1.397-2.517l.117-.188zm-2.009-5.935l-1.613 4.598h3.185l-1.572-4.598m5.209 8.015v-1.35l4.786-7.595h-4.581v-1.411h6.428v1.28l-4.815 7.667h4.815v1.409h-6.632m14.909 0l-2.908-5.104-1.745 2.095v3.009h-1.574V64.057h1.574v5.208l4.232-5.208h1.92l-3.36 4.059 3.709 6.297h-1.848m9.428-1.017c-.713.713-1.63 1.106-2.736 1.106-1.105 0-2.008-.393-2.72-1.106-1.019-1.02-1.004-2.167-1.004-4.16 0-1.995-.015-3.142 1.004-4.162.712-.712 1.615-1.104 2.72-1.104 1.105 0 2.023.392 2.736 1.104 1.017 1.02.988 2.167.988 4.162 0 1.993.03 3.14-.988 4.16zm-1.195-7.376c-.362-.392-.93-.64-1.541-.64-.61 0-1.179.248-1.541.64-.51.554-.611 1.136-.611 3.216s.101 2.66.61 3.214c.363.394.931.64 1.542.64.61 0 1.179-.246 1.541-.64.51-.553.611-1.134.611-3.214s-.101-2.662-.61-3.216zm-1.468-2.967h-1.121l1.09-2.356h1.646l-1.615 2.356m14.445 11.36h-1.369l-2.108-7.257-2.094 7.257h-1.368l-2.706-10.356h1.659l1.804 7.404 2.079-7.404h1.266l2.08 7.404 1.806-7.404h1.657l-2.705 10.356M111.227 91.005c-.713.713-1.63 1.107-2.735 1.107-1.106 0-2.008-.394-2.72-1.107-1.019-1.019-1.004-2.167-1.004-4.16 0-1.993-.015-3.141 1.003-4.161.713-.712 1.615-1.104 2.721-1.104s2.022.392 2.735 1.104c1.018 1.02.99 2.168.99 4.16 0 1.994.028 3.142-.99 4.16zm-1.193-7.376c-.364-.392-.93-.64-1.542-.64-.611 0-1.178.248-1.542.64-.51.553-.611 1.136-.611 3.216s.102 2.661.611 3.215c.364.393.93.64 1.542.64.611 0 1.178-.247 1.542-.64.51-.554.611-1.135.611-3.215s-.102-2.663-.611-3.216m10.226 8.393l-2.182-4.362h-1.964v4.362h-1.57V81.666h4.015c1.963 0 3.214 1.266 3.214 3.026 0 1.485-.902 2.429-2.065 2.749l2.385 4.581zm-1.818-8.945h-2.328v3.245h2.328c1.047 0 1.76-.597 1.76-1.616 0-1.018-.713-1.63-1.76-1.63m11.827 7.857c-.787.83-1.76 1.179-2.852 1.179-1.076 0-2.007-.394-2.72-1.107-1.018-1.019-1.004-2.167-1.004-4.16 0-1.993-.014-3.141 1.004-4.161.713-.712 1.615-1.104 2.72-1.104 2.197 0 3.477 1.44 3.768 3.213h-1.586c-.262-1.133-1.018-1.804-2.182-1.804-.61 0-1.163.248-1.527.64-.51.553-.625 1.136-.625 3.216s.116 2.676.625 3.23c.364.391.917.625 1.527.625.684 0 1.28-.262 1.688-.727.377-.436.523-.96.523-1.63v-.58h-2.21v-1.34h3.781v1.585c0 1.338-.246 2.197-.93 2.925m9.194 1.089l-.712-2.078h-4.088l-.714 2.078h-1.673l3.797-10.356h1.266l3.797 10.356zm-2.72-8.014l-1.615 4.597h3.185l-1.57-4.597m12.218 8.014l-4.785-7.285v7.285h-1.57V81.666h1.44l4.785 7.274v-7.274h1.57v10.356h-1.44m4.147 0h1.57V81.665h-1.57zm3.622 0v-1.35l4.786-7.595h-4.583v-1.41h6.43v1.28l-4.815 7.666h4.815v1.41h-6.634m14.634-.001l-.712-2.078h-4.088l-.712 2.078h-1.674l3.798-10.356h1.266l3.795 10.356zm-2.719-8.014l-1.615 4.597h3.186l-1.571-4.597m9.209 8.104c-1.078 0-2.008-.394-2.721-1.107-1.019-1.019-1.004-2.167-1.004-4.16 0-1.993-.015-3.141 1.004-4.161.713-.712 1.643-1.104 2.721-1.104 1.903 0 3.331 1.12 3.694 3.185h-1.6c-.248-1.047-.946-1.776-2.094-1.776-.612 0-1.165.235-1.529.625-.51.554-.625 1.15-.625 3.23s.116 2.677.625 3.23c.364.392.917.626 1.53.626 1.147 0 1.86-.727 2.107-1.775h1.586c-.35 2.067-1.819 3.187-3.694 3.187m7.14 0c-1.06 0-1.802-.292-2.516-1.006l1.048-1.032c.364.364.714.626 1.468.626 1.164 0 1.878-.714 1.878-2.066v-6.968h1.57v7.084c0 2.154-1.541 3.362-3.448 3.362m6.008-.09h1.572V81.665h-1.572zm10.519.09c-1.557 0-2.677-.366-3.667-1.368l1.048-1.034c.756.756 1.584.99 2.647.99 1.355 0 2.139-.582 2.139-1.586 0-.45-.131-.83-.407-1.076-.263-.25-.524-.35-1.136-.437l-1.221-.175c-.843-.116-1.512-.406-1.963-.828-.51-.481-.759-1.136-.759-1.978 0-1.806 1.311-3.04 3.464-3.04 1.366 0 2.327.348 3.215 1.177l-1.004.99c-.64-.613-1.383-.8-2.255-.8-1.221 0-1.89.698-1.89 1.614 0 .379.116.712.393.96.261.232.681.408 1.163.48l1.178.176c.96.145 1.498.377 1.935.77.568.494.844 1.235.844 2.123 0 1.907-1.557 3.042-3.724 3.042m11.913-1.107c-.713.713-1.629 1.107-2.734 1.107-1.107 0-2.007-.394-2.722-1.107-1.017-1.019-1.002-2.167-1.002-4.16 0-1.993-.015-3.141 1.002-4.161.715-.712 1.615-1.104 2.722-1.104 1.105 0 2.021.392 2.734 1.104 1.019 1.02.988 2.168.988 4.16 0 1.994.031 3.142-.988 4.16zm-1.193-7.376c-.364-.392-.93-.64-1.541-.64-.612 0-1.179.248-1.542.64-.51.553-.612 1.136-.612 3.216s.102 2.661.612 3.215c.363.393.93.64 1.542.64.61 0 1.177-.247 1.541-.64.51-.554.613-1.135.613-3.215s-.104-2.663-.613-3.216m7.855 8.483c-1.075 0-2.008-.394-2.719-1.107-1.019-1.019-1.004-2.167-1.004-4.16 0-1.993-.015-3.141 1.004-4.161.71-.712 1.644-1.104 2.719-1.104 1.906 0 3.332 1.12 3.696 3.185h-1.6c-.247-1.047-.946-1.776-2.096-1.776-.611 0-1.164.235-1.527.625-.508.554-.625 1.15-.625 3.23s.117 2.677.625 3.23c.363.392.916.626 1.527.626 1.15 0 1.862-.727 2.11-1.775h1.586c-.35 2.067-1.818 3.187-3.696 3.187m7.144 0c-1.063 0-1.804-.292-2.518-1.006l1.048-1.032c.364.364.712.626 1.47.626 1.164 0 1.876-.714 1.876-2.066v-6.968h1.572v7.084c0 2.154-1.543 3.362-3.448 3.362m11.957-.09l-.713-2.078h-4.088l-.712 2.078h-1.672l3.794-10.356h1.267l3.796 10.356zm-2.721-8.014l-1.614 4.597h3.186l-1.572-4.597m5.862 8.014V81.666h1.574v8.947h4.988v1.41h-6.562m14.708-.001l-4.786-7.285v7.285h-1.57V81.666h1.439l4.787 7.274v-7.274h1.569v10.356h-1.439m7.535-4.26v4.26h-1.57v-4.26l-3.1-6.096h1.717l2.168 4.554 2.168-4.554h1.716l-3.099 6.096m7.87 4.35c-1.077 0-2.007-.394-2.72-1.107-1.02-1.019-1.005-2.167-1.005-4.16 0-1.993-.014-3.141 1.004-4.161.714-.712 1.644-1.104 2.72-1.104 1.907 0 3.331 1.12 3.695 3.185h-1.6c-.245-1.047-.945-1.776-2.095-1.776-.61 0-1.164.235-1.528.625-.508.554-.624 1.15-.624 3.23s.116 2.677.624 3.23c.364.392.918.626 1.528.626 1.15 0 1.862-.727 2.111-1.775h1.584c-.348 2.067-1.819 3.187-3.695 3.187m11.566-.09V87.5h-4.204v4.522h-1.571V81.666h1.57v4.422h4.205v-4.422h1.569v10.356h-1.57" fill="#ef2e31"/><path d="M150.245 51.917h-6.689l-10.321-35.515-10.249 35.515h-6.69L103.056 1.24h8.115l8.826 36.228L130.175 1.24h6.192l10.178 36.228 8.826-36.228h8.113l-13.239 50.676m48.612.001l-10.676-21.352h-9.609v21.352h-7.687V1.24h19.644c9.61 0 15.73 6.193 15.73 14.805 0 7.26-4.412 11.886-10.107 13.45l11.672 22.42zm-8.897-43.77h-11.388v15.87h11.388c5.124 0 8.612-2.917 8.612-7.9 0-4.981-3.488-7.97-8.612-7.97m24.343 43.77v-6.619l23.414-37.152H215.3V1.241h31.457v6.264l-23.559 37.508h23.559v6.904h-32.453m72.239-4.983c-3.488 3.49-7.971 5.41-13.382 5.41-5.409 0-9.821-1.92-13.308-5.41-4.984-4.981-4.912-10.604-4.912-20.354 0-9.751-.072-15.374 4.912-20.356 3.487-3.487 7.899-5.41 13.308-5.41 5.411 0 9.894 1.923 13.382 5.41 4.982 4.982 4.838 10.605 4.838 20.356 0 9.75.144 15.373-4.838 20.354zm-5.836-36.084c-1.78-1.921-4.556-3.132-7.546-3.132-2.988 0-5.764 1.21-7.544 3.132-2.49 2.704-2.989 5.552-2.989 15.73s.499 13.025 2.99 15.729c1.78 1.923 4.555 3.132 7.543 3.132 2.99 0 5.766-1.21 7.546-3.132 2.489-2.704 2.989-5.55 2.989-15.73 0-10.177-.5-13.025-2.99-15.729m35.517 41.495c-7.616 0-13.096-1.78-17.938-6.69l5.126-5.054c3.701 3.701 7.757 4.84 12.953 4.84 6.619 0 10.463-2.847 10.463-7.759 0-2.206-.64-4.057-1.992-5.266-1.282-1.21-2.563-1.708-5.552-2.135l-5.979-.855c-4.128-.568-7.401-1.992-9.608-4.056-2.492-2.35-3.703-5.552-3.703-9.68 0-8.825 6.407-14.876 16.94-14.876 6.691 0 11.388 1.708 15.73 5.766l-4.912 4.84c-3.13-2.99-6.76-3.915-11.031-3.915-5.979 0-9.252 3.416-9.252 7.9 0 1.85.57 3.488 1.921 4.699 1.282 1.137 3.346 1.992 5.694 2.346l5.765.856c4.697.71 7.33 1.85 9.465 3.77 2.776 2.42 4.13 6.052 4.13 10.393 0 9.324-7.616 14.876-18.22 14.876" fill="#231f20"/><path d="M23.55 46.464a15.504 15.504 0 00-.233-2.69c-1.485-8.422-9.517-14.045-17.94-12.561l2.69 15.25 2.689 15.25c7.52-1.327 12.802-7.87 12.793-15.25" fill="#ef2e31"/><path d="M50.73 15.633a46.374 46.374 0 00-3.955 5.137 46.676 46.676 0 00-3.956-5.137C32.46 3.98 16.482-2.192 0 .713l2.69 15.25a30.833 30.833 0 0119.351 2.86c8.4 4.255 14.764 12.274 16.526 22.262.318 1.808.464 3.604.466 5.379.016 14.76-10.55 27.848-25.588 30.498l2.688 15.25C29.19 89.91 39.99 82.359 46.774 72.118c6.785 10.241 17.585 17.793 30.64 20.096l2.69-15.25c-15.037-2.651-25.605-15.74-25.588-30.5a31.09 31.09 0 01.466-5.377c1.76-9.988 8.125-18.008 16.526-22.262a30.83 30.83 0 0119.351-2.86L93.55.714C77.067-2.192 61.087 3.98 50.729 15.633" fill="#ef2e31"/><path d="M70.232 43.774c-.16.903-.233 1.803-.234 2.69-.007 7.38 5.277 13.922 12.794 15.249l2.69-15.25 2.69-15.25c-8.424-1.484-16.455 4.139-17.94 12.561" fill="#ef2e31"/></svg>