<svg xmlns="http://www.w3.org/2000/svg" height="311.811" width="642.242" clip-rule="evenodd" fill-rule="evenodd" stroke-linejoin="round" stroke-miterlimit="2"><path d="M97.859 241.156c-.795-2.649-2.045-4.921-3.749-6.815-1.704-1.892-3.882-3.369-6.531-4.43-2.652-1.06-5.832-1.591-9.542-1.591H57.931v82.355h22.605c4.089 0 7.497-.529 10.223-1.591 2.727-1.059 4.885-2.612 6.475-4.657 1.59-2.044 2.726-4.543 3.408-7.497.681-2.953 1.022-6.322 1.022-10.11 0-4.998-.928-9.144-2.783-12.438-1.856-3.294-4.714-5.509-8.576-6.645v-.227c3.104-1.287 5.339-3.331 6.702-6.134 1.363-2.801 2.045-6.589 2.045-11.359 0-3.256-.398-6.209-1.193-8.861m-26.183 33.056h8.406c1.363 0 2.517.152 3.464.454.946.304 1.741.891 2.386 1.761.642.872 1.097 2.083 1.363 3.635.264 1.553.397 3.541.397 5.963 0 4.771-.588 7.991-1.76 9.656-1.175 1.667-3.163 2.499-5.964 2.499h-8.292zm0-33.056h6.929c2.726 0 4.637.739 5.736 2.215 1.097 1.477 1.647 4.223 1.647 8.236 0 4.014-.511 6.911-1.533 8.69-1.022 1.78-2.973 2.669-5.85 2.669h-6.929zm81.785-12.836h-15.335l-10.45 41.234h-.227l-10.564-41.234H101.55l18.856 57.251v25.104h14.085v-24.763zm82.241 0H221.73l-9.428 62.476h-.227l-10.11-62.476h-13.177l-10.223 62.135h-.227l-9.201-62.135h-14.085l15.107 82.355h15.562l9.542-55.32h.227l9.429 55.32h15.562zm15.788 63.839h17.948l3.408 18.516h14.426L268.87 228.32h-16.471l-18.402 82.355h14.086zm8.861-49.412h.227l6.815 38.28h-13.858zm24.308-14.427v13.064h14.086v69.291h14.085v-69.291h14.086V228.32zm49.186 0v82.355h37.94v-12.836H347.93v-23.968h17.607v-11.587H347.93v-20.9h22.832V228.32zm46.117 0v82.355h35.668v-13.177h-21.923V228.32zm51.173.512c-2.463 1.099-4.544 2.612-6.248 4.543-1.704 1.931-3.01 4.223-3.919 6.873-.909 2.651-1.363 5.491-1.363 8.519 0 4.015.682 7.44 2.045 10.28 1.363 2.84 3.085 5.339 5.168 7.497a49.507 49.507 0 006.759 5.85 104.06 104.06 0 016.759 5.282c2.081 1.781 3.805 3.712 5.168 5.793 1.363 2.084 2.045 4.564 2.045 7.441 0 5.907-2.538 8.86-7.611 8.86-2.197 0-4.185-.832-5.964-2.499-1.78-1.665-3.086-4.544-3.919-8.633l-11.132 3.408c.53 3.18 1.438 6.002 2.727 8.462 1.286 2.462 2.876 4.526 4.771 6.191a20.11 20.11 0 006.361 3.805c2.346.87 4.845 1.307 7.497 1.307 6.436 0 11.491-1.988 15.164-5.964 3.672-3.976 5.51-9.673 5.51-17.096 0-4.089-.682-7.59-2.045-10.507-1.363-2.914-3.049-5.489-5.055-7.724a40.548 40.548 0 00-6.588-5.907 113.779 113.779 0 01-6.589-5.055c-2.007-1.665-3.691-3.425-5.055-5.282-1.363-1.854-2.044-4.032-2.044-6.531 0-5.603 2.46-8.406 7.383-8.406 2.272 0 4.164.758 5.68 2.272 1.514 1.515 2.687 4.089 3.521 7.724l10.224-3.862c-1.44-5.603-3.826-10.053-7.157-13.347-3.333-3.294-7.914-4.942-13.744-4.942-3.106 0-5.889.55-8.349 1.648m85.363 81.843l-20.219-45.891 18.856-36.464h-15.562l-17.039 39.303V228.32h-13.745v82.355h13.745v-26.126l4.544-9.201 14.199 35.327zm7.042 0h14.085V228.32H523.54zm30.612-76.845c-3.825 4.43-5.736 10.621-5.736 18.572v35.668c0 7.27 1.874 13.045 5.623 17.323 3.748 4.279 8.953 6.418 15.618 6.418 5.754 0 10.317-1.514 13.688-4.544 3.368-3.028 5.583-7.988 6.645-14.881l-10.904-3.294c-.608 3.939-1.554 6.684-2.84 8.236-1.289 1.553-3.107 2.328-5.453 2.328-2.879 0-4.961-1.04-6.247-3.123-1.289-2.082-1.931-4.942-1.931-8.577v-35.554c0-8.406 2.763-12.609 8.292-12.609 4.316 0 7.08 3.257 8.292 9.769l10.678-3.294c-.909-5.68-3.124-10.28-6.645-13.801-3.522-3.522-7.972-5.283-13.347-5.283-6.665 0-11.91 2.216-15.733 6.646m43.675-5.51v82.355h14.086V274.78h16.244v35.895h14.085V228.32h-14.085v33.397h-16.244V228.32z" fill-rule="nonzero"/><path d="M8.122 233.887c-3.825 4.468-5.737 10.83-5.737 19.083v33.055c0 8.256 1.912 14.617 5.737 19.084 3.823 4.469 9.522 6.702 17.096 6.702 7.571 0 13.29-2.233 17.152-6.702 3.862-4.467 5.793-10.828 5.793-19.084v-33.169c0-8.178-1.931-14.501-5.793-18.969-3.862-4.467-9.581-6.702-17.152-6.702-7.574 0-13.273 2.235-17.096 6.702m25.956 52.138c0 4.998-.702 8.502-2.102 10.508-1.402 2.007-3.655 3.01-6.758 3.01-3.031 0-5.246-1.003-6.646-3.01-1.402-2.006-2.101-5.51-2.101-10.508v-33.169c0-4.845.718-8.235 2.158-10.166 1.438-1.931 3.672-2.897 6.702-2.897 3.028 0 5.243.966 6.645 2.897 1.4 1.931 2.102 5.359 2.102 10.28z" fill="#d10a10" fill-rule="nonzero"/><path d="M12.211 115.239c-2.462 1.099-4.543 2.613-6.247 4.544-1.704 1.931-3.011 4.223-3.919 6.872-.909 2.652-1.363 5.492-1.363 8.52 0 4.014.681 7.44 2.044 10.28 1.363 2.84 3.085 5.339 5.169 7.497a49.439 49.439 0 006.758 5.85 103.176 103.176 0 016.759 5.282c2.082 1.781 3.806 3.712 5.169 5.793 1.363 2.084 2.044 4.564 2.044 7.441 0 5.906-2.538 8.86-7.61 8.86-2.197 0-4.185-.832-5.964-2.499-1.781-1.665-3.087-4.544-3.919-8.633L0 178.454c.529 3.18 1.438 6.002 2.726 8.462 1.287 2.462 2.877 4.526 4.771 6.191a20.12 20.12 0 006.361 3.805c2.347.87 4.846 1.307 7.497 1.307 6.436 0 11.491-1.988 15.165-5.964 3.672-3.976 5.509-9.673 5.509-17.096 0-4.089-.681-7.59-2.044-10.507-1.364-2.915-3.049-5.489-5.055-7.724a40.513 40.513 0 00-6.589-5.907 114.088 114.088 0 01-6.588-5.055c-2.008-1.665-3.692-3.426-5.055-5.282-1.363-1.854-2.045-4.032-2.045-6.531 0-5.603 2.461-8.406 7.384-8.406 2.272 0 4.164.758 5.68 2.272 1.513 1.515 2.687 4.089 3.521 7.724l10.223-3.862c-1.44-5.603-3.825-10.053-7.156-13.347-3.333-3.295-7.915-4.942-13.745-4.942-3.106 0-5.889.55-8.349 1.647m37.655-.511v82.355h14.086v-29.875h9.087c6.436 0 11.359-2.252 14.767-6.759 3.408-4.505 5.112-10.961 5.112-19.367 0-8.557-1.761-15.088-5.282-19.595-3.522-4.505-8.616-6.759-15.279-6.759zm14.086 12.609h7.951c2.423 0 4.184.985 5.282 2.953 1.097 1.97 1.647 5.605 1.647 10.905 0 5.302-.55 9.031-1.647 11.189-1.098 2.158-2.859 3.237-5.282 3.237h-7.951zm67.813 69.746h14.881l-13.404-37.259c3.331-1.437 5.83-3.919 7.497-7.44 1.665-3.521 2.499-8.235 2.499-14.142 0-7.572-1.629-13.384-4.885-17.437-3.257-4.05-8.482-6.077-15.675-6.077h-21.583v82.355h14.086v-33.737h5.679zm-16.584-69.746h6.702c1.363 0 2.499.17 3.407.511.909.341 1.665.966 2.272 1.874.605.909 1.041 2.141 1.307 3.692.264 1.554.397 3.541.397 5.964 0 4.543-.511 7.763-1.533 9.655-1.023 1.894-2.974 2.84-5.85 2.84h-6.702zm50.435 51.23h17.947l3.408 18.516h14.426l-18.402-82.355h-16.471l-18.402 82.355h14.086zm8.86-49.412h.227l6.816 38.28H167.66zm105.981-14.427h-13.972l-9.428 62.476h-.228l-10.109-62.476h-13.176l-10.224 62.135h-.227l-9.201-62.135h-14.085l15.108 82.355h15.561l9.543-55.32h.227l9.427 55.32h15.562zM5.225 83.49h14.086V1.136H5.225zM31.918 1.136V83.49h12.381V34.759h.227L66.791 83.49h9.541V1.136H63.951v46.913h-.227L42.255 1.136zm64.009.511c-2.462 1.099-4.544 2.612-6.248 4.544-1.703 1.931-3.01 4.222-3.919 6.872-.908 2.652-1.363 5.492-1.363 8.519 0 4.016.682 7.441 2.045 10.28 1.363 2.84 3.085 5.339 5.168 7.497a49.369 49.369 0 006.759 5.85 104.14 104.14 0 016.759 5.283c2.082 1.78 3.805 3.711 5.168 5.793 1.364 2.084 2.045 4.563 2.045 7.44 0 5.907-2.538 8.86-7.611 8.86-2.197 0-4.185-.832-5.963-2.499-1.781-1.664-3.087-4.544-3.919-8.633l-11.132 3.408c.529 3.181 1.438 6.003 2.726 8.463 1.286 2.462 2.877 4.526 4.771 6.19a20.104 20.104 0 006.361 3.806c2.347.87 4.846 1.306 7.497 1.306 6.436 0 11.491-1.988 15.165-5.964 3.672-3.975 5.509-9.672 5.509-17.095 0-4.09-.682-7.591-2.045-10.508-1.363-2.913-3.049-5.489-5.055-7.724a40.511 40.511 0 00-6.588-5.907 113.641 113.641 0 01-6.588-5.054c-2.008-1.665-3.692-3.425-5.055-5.282-1.363-1.855-2.045-4.033-2.045-6.532 0-5.603 2.46-8.406 7.384-8.406 2.272 0 4.164.758 5.679 2.272 1.514 1.516 2.688 4.089 3.522 7.724l10.223-3.862c-1.44-5.603-3.825-10.053-7.156-13.347C114.688 1.647 110.106 0 104.276 0c-3.106 0-5.889.551-8.349 1.647m32.998-.511v13.063h14.085V83.49h14.085V14.199h14.086V1.136zm95.417 0h-15.335l-10.45 41.234h-.228L187.765 1.136H172.43l18.857 57.25V83.49h14.085V58.727zm1.477 0v13.063h14.085V83.49h14.086V14.199h14.085V1.136zm79.968 0v58.727c0 4.243-.739 7.196-2.215 8.86-1.477 1.667-3.654 2.499-6.532 2.499-2.651 0-4.771-.832-6.361-2.499-1.59-1.664-2.385-4.617-2.385-8.86V1.136h-14.2v58.727c0 8.105 1.988 14.256 5.964 18.459 3.976 4.203 9.636 6.304 16.982 6.304 7.345 0 12.987-2.158 16.925-6.475 3.937-4.316 5.907-10.601 5.907-18.856V1.136zm20.218 0v13.063h14.086V83.49h14.085V14.199h14.085V1.136z" fill-rule="nonzero"/></svg>